<svg version="1.2" xmlns="http://www.w3.org/2000/svg" viewBox="0 0 48 48" width="48" height="48">
	<title>mastercard-svg</title>
	<style>
		.s0 { fill: #3f51b5 } 
		.s1 { fill: #ffc107 } 
		.s2 { fill: #ff3d00 } 
	</style>
	<path class="s0" d="m45 35c0 2.2-1.8 4-4 4h-34c-2.2 0-4-1.8-4-4v-22c0-2.2 1.8-4 4-4h34c2.2 0 4 1.8 4 4z"/>
	<path class="s1" d="m30 14c-2.7 0-5.2 1.1-7.1 2.9-1.8 1.9-2.9 4.4-2.9 7.1 0 2.7 1.1 5.2 2.9 7.1 1.9 1.8 4.4 2.9 7.1 2.9 2.7 0 5.2-1.1 7.1-2.9 1.8-1.9 2.9-4.4 2.9-7.1 0-2.7-1.1-5.2-2.9-7.1-1.9-1.8-4.4-2.9-7.1-2.9z"/>
	<path class="s2" d="m22 30q-0.7-0.9-1.2-2h5.4q0.4-1 0.6-2h-6.6q-0.2-1-0.2-2h7q0-1-0.2-2h-6.6q0.2-1 0.6-2h5.4q-0.5-1.1-1.2-2h-3q0.7-0.9 1.5-1.6c-1.8-1.5-4-2.4-6.5-2.4-5.5 0-10 4.5-10 10 0 5.5 4.5 10 10 10 3.3 0 6.2-1.6 8-4z"/>
</svg>