<svg version="1.2" xmlns="http://www.w3.org/2000/svg" viewBox="0 0 48 48" width="48" height="48">
	<title>pix-svg</title>
	<style>
		.s0 { fill: #4db6ac } 
	</style>
	<path class="s0" d="m11.9 12h-0.7l8.1-8c2.6-2.6 6.8-2.6 9.4 0l8.1 8h-0.7c-1.6 0-3.1 0.6-4.2 1.8l-6.8 6.7c-0.6 0.6-1.6 0.6-2.2 0l-6.8-6.7c-1.1-1.2-2.6-1.8-4.2-1.8z"/>
	<path class="s0" d="m36.1 36h0.7l-8.1 8c-2.6 2.6-6.8 2.6-9.4 0l-8.1-8h0.7c1.6 0 3.1-0.6 4.2-1.8l6.8-6.7c0.6-0.6 1.6-0.6 2.2 0l6.8 6.7c1.1 1.2 2.6 1.8 4.2 1.8z"/>
	<path class="s0" d="m44 28.7l-5.2 5.3h-2.7c-1.1 0-2.1-0.4-2.8-1.2l-6.8-6.8c-1.4-1.3-3.6-1.3-5 0l-6.8 6.8c-0.7 0.8-1.7 1.2-2.8 1.2h-2.7l-5.2-5.3c-2.6-2.6-2.6-6.8 0-9.4l5.2-5.3h2.7c1.1 0 2.1 0.4 2.8 1.2l6.8 6.8c0.7 0.6 1.6 1 2.5 1 0.9 0 1.8-0.4 2.5-1l6.8-6.8c0.7-0.8 1.7-1.2 2.8-1.2h2.7l5.2 5.3c2.6 2.6 2.6 6.8 0 9.4z"/>
</svg>