<svg xmlns="http://www.w3.org/2000/svg" xmlns:xlink="http://www.w3.org/1999/xlink" width="500" zoomAndPan="magnify" viewBox="0 0 375 374.999991" height="500" preserveAspectRatio="xMidYMid meet" version="1.0"><defs><g/><clipPath id="5e4fdd019d"><path d="M 21.957031 203.691406 L 353 203.691406 L 353 269.277344 L 21.957031 269.277344 Z M 21.957031 203.691406 " clip-rule="nonzero"/></clipPath><clipPath id="f9bc013e39"><path d="M 21.980469 203.691406 L 352.707031 203.691406 L 352.707031 268.941406 L 21.980469 268.941406 Z M 21.980469 203.691406 " clip-rule="nonzero"/></clipPath><clipPath id="0a6d6854bc"><path d="M 180 106 L 223 106 L 223 203.972656 L 180 203.972656 Z M 180 106 " clip-rule="nonzero"/></clipPath><clipPath id="7562cef471"><path d="M 148.621094 169 L 223 169 L 223 203.972656 L 148.621094 203.972656 Z M 148.621094 169 " clip-rule="nonzero"/></clipPath></defs><g clip-path="url(#5e4fdd019d)"><path fill="#000000" d="M 21.957031 203.691406 L 352.976562 203.691406 L 352.976562 269.277344 L 21.957031 269.277344 Z M 21.957031 203.691406 " fill-opacity="1" fill-rule="nonzero"/></g><g clip-path="url(#f9bc013e39)"><path stroke-linecap="butt" transform="matrix(0.75, 0, 0, 0.75, 21.980939, 203.68947)" fill="none" stroke-linejoin="miter" d="M -0.000627289 0.0025819 L 441.374402 0.0025819 L 441.374402 87.440088 L -0.000627289 87.440088 Z M -0.000627289 0.0025819 " stroke="#ffffff" stroke-width="8" stroke-opacity="1" stroke-miterlimit="4"/></g><g clip-path="url(#0a6d6854bc)"><path fill="#ffffff" d="M 204.039062 118.707031 C 204.039062 118.707031 203.363281 117.816406 203.183594 117.425781 C 203.148438 117.386719 203.789062 117.566406 203.753906 116.855469 C 203.71875 116.144531 203.789062 113.476562 203.894531 112.40625 C 204.003906 111.339844 202.472656 105.71875 199.484375 106.359375 C 199.484375 106.394531 198.34375 106.003906 196.070312 106.714844 C 193.792969 107.425781 193.683594 107.925781 193.683594 107.925781 C 193.683594 107.925781 191.441406 108.636719 192.261719 109.632812 C 192.332031 109.667969 192.117188 110.734375 192.226562 111.164062 C 192.191406 111.125 191.796875 111.875 192.046875 112.585938 C 192.046875 112.585938 192.082031 111.765625 192.332031 111.519531 C 192.332031 111.554688 192.476562 112.050781 192.757812 112.125 C 192.722656 112.125 192.769531 113.601562 192.769531 113.996094 C 192.769531 114.394531 193.191406 114.46875 193.191406 114.59375 C 193.191406 114.71875 192.84375 115.488281 192.722656 115.835938 C 192.597656 116.183594 192.222656 116.855469 192.273438 117.15625 C 192.324219 117.453125 193.265625 117.476562 193.390625 117.675781 C 193.515625 117.875 193.390625 118.148438 193.316406 118.324219 C 193.242188 118.496094 193.816406 118.746094 193.816406 118.746094 C 193.816406 118.746094 193.515625 119.019531 193.664062 119.21875 C 193.816406 119.417969 194.039062 119.34375 194.089844 119.46875 C 194.136719 119.589844 193.9375 120.636719 194.335938 120.933594 C 194.734375 121.234375 195.730469 121.082031 196.996094 120.636719 C 197.246094 120.5625 197.917969 120.710938 197.917969 121.007812 C 197.917969 121.308594 198.039062 121.703125 198.414062 121.929688 C 198.785156 122.152344 198.863281 122.351562 198.863281 122.351562 C 198.863281 122.351562 197.320312 123.917969 197.121094 124.089844 C 196.921875 124.265625 197.246094 125.78125 197.023438 126.355469 C 196.796875 126.925781 197.097656 127 197.097656 127 C 197.097656 127 195.753906 129.3125 195.878906 133.339844 C 195.828125 133.363281 194.859375 135.328125 194.535156 135.675781 C 194.210938 136.023438 194.660156 137.019531 194.910156 137.144531 C 194.910156 137.167969 194.363281 137.964844 194.335938 138.1875 C 194.3125 138.410156 194.683594 138.636719 194.683594 138.636719 C 194.683594 138.636719 194.039062 140.601562 193.542969 141.246094 C 193.042969 141.890625 192.199219 143.085938 191.527344 145.175781 C 190.855469 147.261719 189.835938 150.96875 188.667969 152.980469 C 188.371094 153.453125 188.34375 153.949219 188.070312 154.421875 C 187.796875 154.894531 185.585938 158.050781 185.261719 158.402344 C 184.9375 158.75 184.9375 159.121094 185.210938 159.445312 C 185.484375 159.769531 186.753906 160.988281 187.027344 161.261719 C 187.300781 161.53125 187.824219 161.109375 188.121094 160.664062 C 188.246094 160.488281 188.445312 160.289062 188.445312 160.289062 C 188.445312 160.289062 188.792969 160.613281 189.089844 160.589844 C 189.390625 160.5625 189.5625 159.992188 189.390625 159.570312 C 189.390625 159.542969 189.960938 158.128906 189.984375 157.429688 C 190.011719 156.734375 189.910156 156.136719 190.109375 155.816406 C 190.308594 155.492188 192.746094 152.558594 193.542969 151.6875 C 194.335938 150.816406 196.398438 148.355469 196.398438 148.355469 C 196.398438 148.355469 195.597656 153.003906 195.625 153.949219 C 195.597656 153.949219 193.839844 156.5625 192.496094 160.925781 C 191.152344 165.289062 189.511719 172.523438 188.992188 173.605469 C 188.46875 174.683594 188.207031 175.953125 188.355469 178.300781 C 188.507812 180.652344 188.582031 185.835938 188.542969 188.183594 C 188.507812 190.535156 188.804688 193.554688 189.175781 194.523438 C 189.175781 194.5625 188.878906 195.308594 188.878906 195.308594 C 188.878906 195.308594 188.730469 194.972656 188.429688 195.53125 C 188.132812 196.089844 187.796875 196.574219 188.097656 196.652344 C 188.132812 196.613281 187.398438 196.738281 187.175781 197.210938 C 187.175781 197.210938 186.40625 197.359375 186.105469 197.882812 C 186.082031 197.90625 185.261719 197.804688 184.914062 198.429688 C 184.890625 198.402344 183.992188 199.074219 183.570312 199.199219 C 183.148438 199.324219 180.761719 199.421875 180.8125 200.617188 C 180.785156 200.617188 180.5625 200.742188 180.710938 201.210938 C 180.863281 201.683594 183.769531 202.605469 186.503906 202.40625 C 189.238281 202.207031 191.230469 201.882812 191.230469 201.882812 C 191.230469 201.882812 191.328125 202.28125 191.476562 202.28125 C 191.625 202.28125 195.308594 202.367188 195.703125 202.191406 C 196.101562 202.019531 195.976562 201.21875 195.804688 201.144531 C 195.777344 201.144531 195.960938 200.234375 195.703125 199.671875 C 195.730469 199.671875 195.976562 199.769531 196.175781 199.050781 C 196.375 198.328125 196.523438 197.855469 196.203125 197.78125 C 196.226562 197.78125 196.597656 193.457031 196.550781 192.808594 C 196.5 192.164062 196.25 191.914062 196.25 191.914062 C 196.25 191.914062 196.921875 187.710938 196.898438 184.28125 C 196.871094 180.851562 197.007812 180.054688 196.710938 178.078125 C 196.710938 178.078125 196.933594 176.625 197.382812 176.214844 C 197.828125 175.804688 197.867188 174.835938 198.277344 173.828125 C 198.6875 172.820312 200.066406 170.65625 200.960938 168.007812 C 201 168.046875 202.378906 174.050781 202.902344 175.429688 C 203.421875 176.8125 203.199219 178.078125 203.984375 179.609375 C 204.765625 181.136719 208.570312 187.511719 209.539062 189.453125 C 210.507812 191.390625 212.859375 194.078125 212.96875 194.824219 C 213.082031 195.570312 213.789062 195.828125 213.789062 195.828125 C 213.789062 195.828125 212.859375 196.652344 213.230469 196.984375 C 213.230469 197.023438 212.632812 197.308594 212.609375 197.683594 C 212.632812 197.683594 211.8125 198.003906 211.8125 198.503906 C 211.839844 198.476562 211.066406 198.800781 210.871094 199.324219 C 210.84375 199.273438 210.222656 199.871094 209.675781 200.019531 C 209.128906 200.167969 207.289062 200.269531 207.191406 201.460938 C 207.191406 201.4375 206.71875 202.007812 207.265625 202.429688 C 207.8125 202.851562 210.324219 203.671875 212.285156 203.5 C 214.25 203.324219 217.285156 201.757812 218.203125 201.511719 C 218.253906 201.511719 218.527344 201.933594 218.726562 201.910156 C 218.925781 201.882812 221.882812 200.765625 222.007812 200.492188 C 222.132812 200.21875 221.984375 199.371094 221.757812 199.371094 C 221.757812 199.398438 221.832031 198.898438 221.683594 198.675781 C 221.683594 198.675781 221.933594 198.625 221.90625 198.203125 C 221.882812 197.78125 222.082031 196.539062 221.585938 196.6875 C 221.609375 196.710938 219.917969 190.96875 219.445312 190.722656 C 218.972656 190.472656 217.058594 184.929688 215.417969 182.117188 C 213.777344 179.308594 212.535156 177.222656 212.3125 176.898438 C 212.085938 176.574219 212.113281 174.164062 211.8125 171.253906 C 211.515625 168.34375 210.023438 159.121094 210.222656 158.175781 C 210.421875 157.230469 211.339844 155.691406 211.042969 154.023438 C 211.019531 154 211.242188 153.976562 211.167969 153.15625 C 211.09375 152.335938 209.898438 148.605469 209.824219 148.40625 C 209.75 148.207031 209.328125 148.230469 209.328125 148.230469 L 208.90625 147.410156 C 208.90625 147.410156 209.625 145.421875 209.699219 144.824219 C 209.773438 144.230469 210.25 143.929688 210.273438 142.738281 C 210.296875 141.542969 210.671875 137.390625 210.496094 136.371094 C 210.496094 136.347656 211.09375 133.714844 210.746094 129.488281 C 210.398438 125.261719 208.90625 122.300781 206.691406 120.261719 C 206.691406 120.214844 206.320312 118.820312 206.046875 118.722656 C 205.773438 118.621094 205.261719 118.464844 204.039062 118.707031 " fill-opacity="1" fill-rule="nonzero"/></g><g clip-path="url(#7562cef471)"><path fill="#ffffff" d="M 165.015625 181.859375 C 165.015625 181.859375 163.84375 182.050781 162.652344 181.742188 C 161.457031 181.429688 159.257812 181.070312 159.257812 181.070312 C 159.257812 181.070312 157.277344 182.195312 156.199219 183.316406 C 155.125 184.441406 154.550781 184.847656 153.476562 184.824219 C 153.140625 184.824219 153.40625 184.320312 153.40625 184.320312 C 153.40625 184.320312 153.046875 184.035156 153.09375 183.9375 C 153.140625 183.84375 153.40625 183.890625 153.40625 183.890625 C 153.40625 183.890625 153.453125 183.582031 153.5 183.484375 C 153.5 183.507812 152.59375 183.746094 151.898438 183.796875 C 151.207031 183.84375 150.679688 183.148438 150.679688 183.148438 C 150.679688 183.148438 149.773438 182.910156 149.246094 182.386719 C 148.722656 181.859375 148.625 181.644531 149.007812 181.191406 C 149.390625 180.738281 149.460938 180.640625 149.628906 180.640625 C 149.652344 180.640625 151.589844 178.277344 151.851562 177.894531 C 152.113281 177.511719 152.304688 177.152344 152.304688 176.984375 C 152.304688 176.820312 151.921875 176.078125 152.089844 175.648438 C 152.257812 175.21875 152.425781 175.074219 152.761719 174.335938 C 153.09375 173.59375 154.574219 171.660156 155.195312 171.324219 C 155.816406 170.988281 157.324219 170.226562 160.070312 170.488281 C 160.644531 170.582031 160.980469 170.773438 161.410156 170.703125 C 161.839844 170.632812 166.269531 169.289062 168.851562 169.316406 C 171.429688 169.339844 177.417969 170.007812 179.183594 170.535156 C 180.953125 171.0625 184.34375 170.390625 186.613281 169.960938 C 188.882812 169.53125 192.828125 168.71875 196.480469 170.25 C 198.777344 171.179688 198.871094 171.539062 200.328125 171.945312 C 201.785156 172.351562 206.945312 174.261719 208.425781 174.597656 C 209.910156 174.929688 211.199219 175.984375 213.804688 175.550781 C 216.40625 175.121094 222.453125 174.214844 222.882812 174.882812 C 223.3125 175.550781 220.757812 176.414062 219.824219 176.820312 C 218.894531 177.226562 214.449219 179.007812 212.035156 178.9375 C 209.621094 178.863281 209.367188 178.859375 206.742188 178.191406 C 204.113281 177.523438 202.183594 176.964844 202.042969 177.371094 C 201.96875 177.585938 202.765625 181.453125 202.023438 183.628906 C 201.285156 185.800781 200.160156 187.546875 200.855469 189.148438 C 201.546875 190.746094 202.074219 191.25 202.597656 191.535156 C 203.125 191.824219 203.816406 192.945312 203.53125 194.425781 C 203.433594 194.976562 203.722656 198.152344 203.792969 199.039062 C 203.863281 199.921875 203.699219 199.992188 203.792969 201.070312 C 203.886719 202.144531 203.671875 202.667969 203.21875 202.789062 C 202.765625 202.910156 202 202.980469 201.453125 202.8125 C 201.425781 202.789062 200.640625 202.980469 200.257812 202.859375 C 199.875 202.742188 199.371094 201.90625 199.683594 201.425781 C 199.992188 200.949219 200.398438 200.519531 200.6875 200.542969 C 200.972656 200.566406 201.5 200.421875 201.546875 200.042969 C 201.59375 199.660156 201.546875 197.652344 201.378906 196.671875 C 201.210938 195.691406 200.832031 194.808594 200.832031 194.808594 C 200.832031 194.808594 198.847656 196.648438 198.5625 197.339844 C 198.273438 198.035156 197.988281 198.082031 197.605469 198.273438 C 197.222656 198.464844 197.054688 198.773438 197.101562 199.0625 C 197.152344 199.347656 197.34375 200.113281 196.695312 200.421875 C 196.050781 200.734375 195.453125 201.117188 195.070312 201.070312 C 195.070312 201.042969 194.089844 201.640625 193.5625 201.386719 C 193.109375 201.171875 193.167969 200.203125 193.3125 199.765625 C 193.539062 199.054688 194.332031 198.941406 194.714844 198.558594 C 195.097656 198.179688 195.503906 197.054688 196.242188 196.339844 C 196.984375 195.621094 197.773438 194.140625 198.082031 193.804688 C 198.226562 193.660156 198.128906 193.015625 197.722656 192.660156 C 197.316406 192.300781 193.710938 190.101562 192.660156 188.070312 C 191.609375 186.039062 191.511719 183.605469 191.417969 183.578125 C 191.320312 183.554688 189.457031 184.367188 186.855469 185.921875 C 184.25 187.472656 179.066406 188.5 178.300781 188.621094 C 178.300781 188.621094 178.039062 191.609375 177.992188 192.96875 C 177.941406 194.332031 177.679688 195.261719 177.871094 195.527344 C 178.0625 195.789062 179.425781 196.195312 179.6875 196.554688 C 179.949219 196.910156 180.476562 197.339844 180.59375 197.390625 C 180.714844 197.4375 181.597656 196.863281 182.171875 197.554688 C 182.746094 198.25 182.984375 198.917969 182.886719 199.46875 C 182.886719 199.492188 183.300781 200.074219 183.183594 200.359375 C 182.96875 200.878906 181.605469 201 181.121094 200.734375 C 180.847656 200.585938 179.902344 199.636719 179.6875 199.46875 C 179.472656 199.300781 177.5625 198.175781 177.058594 198.175781 C 176.558594 198.175781 175.195312 197.746094 175.195312 196.335938 C 175.195312 194.929688 174.859375 192.585938 174.859375 192.585938 C 174.859375 192.585938 173.261719 195.382812 172.878906 196.121094 C 172.496094 196.863281 172.566406 197.84375 172.183594 198.320312 C 171.804688 198.796875 171.207031 199.0625 170.917969 199.636719 C 170.632812 200.207031 169.914062 200.613281 169.722656 200.828125 C 169.53125 201.042969 169.367188 202.933594 168.695312 202.980469 C 168.027344 203.027344 167.238281 203.480469 166.210938 203.289062 C 165.183594 203.097656 164.898438 203.125 164.96875 202.453125 C 165.042969 201.785156 165.28125 200.972656 165.664062 200.851562 C 166.042969 200.734375 167.167969 200.472656 167.40625 200.015625 C 167.644531 199.5625 168.265625 198.535156 168.769531 198.128906 C 169.269531 197.722656 170.179688 195.167969 170.558594 193.972656 C 170.941406 192.777344 171.707031 191.203125 171.851562 189.386719 C 171.828125 189.386719 170.203125 189.125 168.507812 187.285156 C 166.808594 185.445312 165.0625 183.820312 165.015625 181.859375 " fill-opacity="1" fill-rule="nonzero"/></g><path fill="#ffffff" d="M 189.140625 160.195312 L 188.90625 159.960938 C 188.820312 159.875 188.714844 159.828125 188.609375 159.816406 L 186.378906 157.597656 C 186.085938 157.304688 185.660156 157.261719 185.425781 157.496094 L 185.144531 157.785156 C 185.125 157.804688 185.109375 157.828125 185.09375 157.851562 C 185.058594 157.867188 185.023438 157.882812 184.992188 157.910156 L 183.5625 159.113281 C 183.457031 159.203125 183.421875 159.351562 183.453125 159.496094 C 182.839844 160.027344 182.082031 160.691406 181.3125 161.382812 C 180.414062 162.191406 179.492188 163.039062 178.753906 163.769531 C 178.386719 164.136719 178.0625 164.472656 177.804688 164.761719 C 177.550781 165.058594 177.363281 165.289062 177.25 165.519531 C 177.214844 165.59375 177.058594 165.8125 176.824219 166.070312 C 176.003906 167 174.261719 168.601562 172.742188 169.957031 C 171.21875 171.3125 169.910156 172.425781 169.90625 172.429688 L 169.136719 173.085938 L 177.613281 173.621094 L 177.746094 173.496094 C 177.746094 173.496094 178.996094 172.292969 180.332031 170.886719 C 181.003906 170.183594 181.691406 169.425781 182.261719 168.742188 C 182.832031 168.046875 183.277344 167.449219 183.480469 166.957031 C 183.601562 166.648438 184.039062 166.03125 184.609375 165.347656 C 185.347656 164.457031 186.316406 163.421875 187.175781 162.53125 C 187.339844 162.582031 187.519531 162.550781 187.640625 162.425781 L 188.597656 161.453125 C 188.648438 161.429688 188.695312 161.398438 188.738281 161.359375 L 189.019531 161.070312 C 189.058594 161.03125 189.085938 160.984375 189.109375 160.933594 L 189.175781 160.867188 C 189.351562 160.6875 189.335938 160.386719 189.140625 160.195312 Z M 183.980469 164.824219 C 183.386719 165.539062 182.929688 166.152344 182.722656 166.648438 C 182.601562 166.957031 182.179688 167.558594 181.628906 168.21875 C 180.804688 169.214844 179.6875 170.390625 178.78125 171.3125 C 178.105469 172 177.546875 172.546875 177.304688 172.78125 L 171.203125 172.394531 C 171.871094 171.816406 172.898438 170.921875 173.953125 169.972656 C 174.851562 169.164062 175.765625 168.316406 176.5 167.59375 C 176.863281 167.230469 177.1875 166.898438 177.4375 166.617188 C 177.691406 166.324219 177.875 166.101562 177.988281 165.875 C 178.023438 165.792969 178.1875 165.566406 178.421875 165.304688 C 179.25 164.359375 181 162.753906 182.523438 161.398438 C 183.050781 160.929688 183.550781 160.492188 183.984375 160.121094 C 184.117188 160.171875 184.265625 160.160156 184.371094 160.070312 L 185.570312 159.058594 L 187.351562 160.828125 L 186.695312 161.496094 C 186.578125 161.617188 186.546875 161.789062 186.59375 161.949219 C 186.398438 162.15625 186.191406 162.367188 185.988281 162.585938 C 185.289062 163.324219 184.570312 164.113281 183.980469 164.824219 " fill-opacity="1" fill-rule="nonzero"/><g fill="#ffffff" fill-opacity="1"><g transform="translate(23.994346, 255.125962)"><g><path d="M 14.84375 -36.328125 L 17.4375 -12.859375 L 17.53125 -12.859375 L 28.859375 -36.328125 L 36.375 -36.328125 L 39.796875 -12.859375 L 39.890625 -12.859375 L 50.4375 -36.328125 L 60.265625 -36.328125 L 42.921875 0 L 33.28125 0 L 30.25 -21.046875 L 30.15625 -21.046875 L 19.703125 0 L 10.109375 0 L 5.015625 -36.328125 Z M 14.84375 -36.328125 "/></g></g></g><g fill="#ffffff" fill-opacity="1"><g transform="translate(72.698352, 255.125962)"><g><path d="M 29.8125 -36.328125 L 37.765625 0 L 27.703125 0 L 26.34375 -6.3125 L 13.34375 -6.3125 L 9.828125 0 L -0.1875 0 L 19.515625 -36.328125 Z M 17.09375 -13.53125 L 24.953125 -13.53125 L 22.9375 -25.09375 L 22.828125 -25.09375 Z M 17.09375 -13.53125 "/></g></g></g><g fill="#ffffff" fill-opacity="1"><g transform="translate(105.215702, 255.125962)"><g><path d="M 18.25 -36.328125 L 13.78125 -8 L 25.09375 -8 L 23.84375 0 L 3.078125 0 L 8.8125 -36.328125 Z M 18.25 -36.328125 "/></g></g></g><g fill="#ffffff" fill-opacity="1"><g transform="translate(123.955121, 255.125962)"><g><path d="M 18.25 -36.328125 L 15.890625 -21.34375 L 16 -21.34375 L 29.765625 -36.328125 L 41.46875 -36.328125 L 24.328125 -19.125 L 37.046875 0 L 24.8125 0 L 15.125 -15.75 L 15.03125 -15.75 L 12.53125 0 L 3.078125 0 L 8.8125 -36.328125 Z M 18.25 -36.328125 "/></g></g></g><g fill="#ffffff" fill-opacity="1"><g transform="translate(155.364454, 255.125962)"><g><path d="M 29.484375 -36.328125 L 28.234375 -28.328125 L 17 -28.328125 L 16.046875 -22.25 L 26.6875 -22.25 L 25.4375 -14.265625 L 14.78125 -14.265625 L 13.78125 -8 L 25 -8 L 23.75 0 L 3.078125 0 L 8.8125 -36.328125 Z M 29.484375 -36.328125 "/></g></g></g><g fill="#ffffff" fill-opacity="1"><g transform="translate(176.753457, 255.125962)"><g><path d="M 23.171875 -36.328125 C 26.441406 -36.328125 29.066406 -35.554688 31.046875 -34.015625 C 33.023438 -32.472656 34.015625 -30.253906 34.015625 -27.359375 C 34.015625 -24.273438 33.097656 -21.550781 31.265625 -19.1875 C 29.429688 -16.832031 27.085938 -15.398438 24.234375 -14.890625 L 33.28125 0 L 21.53125 0 L 14.84375 -13.96875 L 14.734375 -13.96875 L 12.53125 0 L 3.078125 0 L 8.8125 -36.328125 Z M 15.703125 -20.046875 L 17 -20.046875 C 19.21875 -20.046875 20.9375 -20.507812 22.15625 -21.4375 C 23.375 -22.363281 23.984375 -23.726562 23.984375 -25.53125 C 23.984375 -27.90625 22.023438 -29.09375 18.109375 -29.09375 L 17.15625 -29.09375 Z M 15.703125 -20.046875 "/></g></g></g><path stroke-linecap="butt" transform="matrix(0.903363, 0, 0, 0.903363, 196.246648, 207.247707)" fill="none" stroke-linejoin="miter" d="M 42.397369 20.892355 C 42.397369 23.383047 41.679566 25.545106 40.23531 27.378533 C 38.795378 29.207635 36.460354 30.8508 33.234562 32.312352 L 37.489495 37.635342 C 40.1618 35.507875 42.228729 33.609587 43.685957 31.931829 L 48.701934 37.583452 L 42.189812 43.507495 L 49.700805 52.998935 L 36.641967 52.998935 L 33.766429 49.262897 C 28.499652 52.467068 23.660964 54.066992 19.263335 54.066992 C 15.842957 54.066992 13.110114 53.184872 11.060482 51.424956 C 9.019498 49.660715 7.999006 47.360284 7.999006 44.523663 C 7.999006 41.574614 8.889775 38.958522 10.666987 36.684036 C 12.448524 34.405225 15.432166 32.480992 19.626561 30.919986 C 18.454725 29.03467 17.732597 27.694193 17.464502 26.894231 C 17.205055 26.094269 17.075331 25.216473 17.075331 24.252195 C 17.075331 20.771279 18.50229 17.813582 21.356208 15.383428 C 24.223099 12.944625 27.574291 11.725223 31.409784 11.725223 C 34.579363 11.725223 37.199779 12.598695 39.275356 14.345639 C 41.355257 16.079611 42.397369 18.263291 42.397369 20.892355 Z M 29.494199 27.456367 C 32.516758 25.856443 34.025876 24.010044 34.025876 21.908523 C 34.025876 21.022078 33.766429 20.286978 33.247534 19.694574 C 32.732964 19.106494 32.019485 18.80813 31.098447 18.80813 C 30.03039 18.80813 29.105029 19.1973 28.322363 19.966993 C 27.544022 20.732362 27.150527 21.627455 27.150527 22.652271 C 27.150527 23.867348 27.933193 25.467272 29.494199 27.456367 Z M 23.258821 44.679331 C 24.997116 44.679331 26.929997 44.130168 29.066112 43.027518 L 23.795011 36.204059 C 20.729211 37.834251 19.198473 39.611464 19.198473 41.531373 C 19.198473 42.491327 19.587644 43.26102 20.370309 43.831804 C 21.157299 44.398263 22.121577 44.679331 23.258821 44.679331 Z M 68.68801 12.793281 C 72.030554 12.793281 75.022844 13.532705 77.669204 15.007229 C 80.328537 16.481754 82.408438 18.518414 83.92188 21.112885 C 85.430997 23.707356 86.187718 26.48344 86.187718 29.432489 C 86.187718 33.488512 85.093716 37.336978 82.905712 40.98221 C 80.717708 44.618793 77.755687 47.533249 74.023972 49.716929 C 70.292258 51.904933 66.400551 52.998935 62.344528 52.998935 L 47.465236 52.998935 L 53.817366 12.793281 Z M 59.300349 44.147464 L 61.332684 44.147464 C 65.565996 44.147464 68.934485 42.897794 71.433825 40.398454 C 73.941814 37.886141 75.195808 34.643052 75.195808 30.656214 C 75.195808 27.949316 74.352605 25.76996 72.657551 24.122471 C 70.975469 22.470658 68.463156 21.649076 65.120612 21.649076 L 62.880719 21.649076 Z M 127.941406 29.004401 C 127.941406 32.874487 126.82146 36.895917 124.581566 41.060044 C 122.341673 45.219846 119.176418 48.467259 115.090126 50.810931 C 110.99951 53.154603 106.61053 54.326439 101.914537 54.326439 C 96.262914 54.326439 91.675024 52.665978 88.150868 49.340731 C 84.635359 46.015484 82.875443 41.639476 82.875443 36.204059 C 82.875443 31.724272 84.055927 27.594739 86.416896 23.811135 C 88.786513 20.014559 92.007981 17.009296 96.081301 14.786699 C 100.150296 12.564102 104.35334 11.452804 108.681782 11.452804 C 112.136753 11.452804 115.36687 12.200876 118.367808 13.692697 C 121.37307 15.184518 123.716743 17.260095 125.398825 19.915104 C 127.093879 22.561465 127.941406 25.592672 127.941406 29.004401 Z M 103.514461 44.199354 C 105.935967 44.199354 108.167212 43.533439 110.208196 42.205935 C 112.253504 40.869782 113.883697 39.148783 115.090126 37.038613 C 116.296555 34.919795 116.897608 32.826922 116.897608 30.759993 C 116.897608 28.200115 115.929005 26.029408 113.996124 24.252195 C 112.058919 22.470658 109.736867 21.584214 107.029969 21.584214 C 104.937096 21.584214 102.857195 22.154997 100.79459 23.300889 C 98.73631 24.438132 97.071524 25.964546 95.804557 27.884454 C 94.546239 29.804363 93.919242 31.931829 93.919242 34.275502 C 93.919242 37.159689 94.814334 39.53363 96.600195 41.397325 C 98.399028 43.265344 100.703784 44.199354 103.514461 44.199354 Z M 155.723868 26.868287 C 154.690404 22.600382 152.074312 20.464267 147.884241 20.464267 C 145.678941 20.464267 143.607688 21.182071 141.674807 22.626326 C 139.737602 24.066258 138.198216 25.96887 137.052324 28.338487 C 135.915081 30.699456 135.344297 33.10799 135.344297 35.564089 C 135.344297 38.621241 136.144259 41.081664 137.739859 42.949683 C 139.348431 44.813379 141.501842 45.747388 144.200092 45.747388 C 146.656191 45.747388 148.718796 45.129039 150.383582 43.888017 C 152.057015 42.634023 153.159666 40.925996 153.691532 38.755288 L 145.164371 38.755288 L 146.491875 30.552436 L 167.24332 30.552436 C 166.317958 36.169466 164.756952 40.606011 162.568948 43.862072 C 160.380944 47.105161 157.609184 49.660715 154.249344 51.528735 C 150.889503 53.396754 147.062659 54.326439 142.768809 54.326439 C 137.220965 54.326439 132.767123 52.765433 129.407283 49.639095 C 126.047442 46.517081 124.369684 42.335659 124.369684 37.103475 C 124.369684 32.51991 125.450714 28.256329 127.612773 24.317057 C 129.783481 20.369136 132.819012 17.238475 136.723691 14.929395 C 140.641343 12.611668 145.038971 11.452804 149.916577 11.452804 C 158.41347 11.452804 163.866183 15.201815 166.279041 22.70416 Z M 155.723868 26.868287 " stroke="#020000" stroke-width="5.399997" stroke-opacity="1" stroke-miterlimit="4"/><g fill="#ffffff" fill-opacity="1"><g transform="translate(200.297667, 255.125962)"><g><path d="M 34.25 -29 C 34.25 -26.75 33.597656 -24.796875 32.296875 -23.140625 C 30.992188 -21.492188 28.882812 -20.007812 25.96875 -18.6875 L 29.8125 -13.875 C 32.226562 -15.800781 34.09375 -17.519531 35.40625 -19.03125 L 39.9375 -13.921875 L 34.0625 -8.578125 L 40.84375 0 L 29.046875 0 L 26.453125 -3.375 C 21.691406 -0.476562 17.320312 0.96875 13.34375 0.96875 C 10.257812 0.96875 7.789062 0.171875 5.9375 -1.421875 C 4.09375 -3.015625 3.171875 -5.09375 3.171875 -7.65625 C 3.171875 -10.320312 3.972656 -12.679688 5.578125 -14.734375 C 7.191406 -16.796875 9.894531 -18.53125 13.6875 -19.9375 C 12.625 -21.644531 11.972656 -22.859375 11.734375 -23.578125 C 11.492188 -24.296875 11.375 -25.09375 11.375 -25.96875 C 11.375 -29.113281 12.664062 -31.785156 15.25 -33.984375 C 17.832031 -36.179688 20.859375 -37.28125 24.328125 -37.28125 C 27.179688 -37.28125 29.546875 -36.492188 31.421875 -34.921875 C 33.304688 -33.347656 34.25 -31.375 34.25 -29 Z M 22.59375 -23.078125 C 25.320312 -24.515625 26.6875 -26.179688 26.6875 -28.078125 C 26.6875 -28.878906 26.453125 -29.546875 25.984375 -30.078125 C 25.523438 -30.609375 24.875 -30.875 24.03125 -30.875 C 23.070312 -30.875 22.238281 -30.53125 21.53125 -29.84375 C 20.820312 -29.15625 20.46875 -28.34375 20.46875 -27.40625 C 20.46875 -26.3125 21.175781 -24.867188 22.59375 -23.078125 Z M 16.953125 -7.515625 C 18.523438 -7.515625 20.273438 -8.015625 22.203125 -9.015625 L 17.4375 -15.171875 C 14.675781 -13.691406 13.296875 -12.085938 13.296875 -10.359375 C 13.296875 -9.492188 13.648438 -8.800781 14.359375 -8.28125 C 15.066406 -7.769531 15.929688 -7.515625 16.953125 -7.515625 Z M 16.953125 -7.515625 "/></g></g></g><g fill="#ffffff" fill-opacity="1"><g transform="translate(236.042719, 255.125962)"><g><path d="M 22.25 -36.328125 C 25.269531 -36.328125 27.976562 -35.660156 30.375 -34.328125 C 32.769531 -32.992188 34.648438 -31.15625 36.015625 -28.8125 C 37.378906 -26.46875 38.0625 -23.960938 38.0625 -21.296875 C 38.0625 -17.628906 37.070312 -14.148438 35.09375 -10.859375 C 33.113281 -7.566406 30.4375 -4.929688 27.0625 -2.953125 C 23.695312 -0.984375 20.179688 0 16.515625 0 L 3.078125 0 L 8.8125 -36.328125 Z M 13.78125 -8 L 15.609375 -8 C 19.429688 -8 22.472656 -9.128906 24.734375 -11.390625 C 26.992188 -13.648438 28.125 -16.582031 28.125 -20.1875 C 28.125 -22.625 27.363281 -24.585938 25.84375 -26.078125 C 24.320312 -27.578125 22.050781 -28.328125 19.03125 -28.328125 L 17 -28.328125 Z M 13.78125 -8 "/></g></g></g><g fill="#ffffff" fill-opacity="1"><g transform="translate(267.16301, 255.125962)"><g><path d="M 44.65625 -21.671875 C 44.65625 -18.171875 43.640625 -14.539062 41.609375 -10.78125 C 39.585938 -7.03125 36.726562 -4.09375 33.03125 -1.96875 C 29.34375 0.144531 25.378906 1.203125 21.140625 1.203125 C 16.035156 1.203125 11.894531 -0.296875 8.71875 -3.296875 C 5.539062 -6.296875 3.953125 -10.253906 3.953125 -15.171875 C 3.953125 -19.222656 5.019531 -22.957031 7.15625 -26.375 C 9.289062 -29.789062 12.195312 -32.503906 15.875 -34.515625 C 19.550781 -36.523438 23.347656 -37.53125 27.265625 -37.53125 C 30.378906 -37.53125 33.289062 -36.851562 36 -35.5 C 38.71875 -34.15625 40.835938 -32.285156 42.359375 -29.890625 C 43.890625 -27.492188 44.65625 -24.753906 44.65625 -21.671875 Z M 22.59375 -7.953125 C 24.78125 -7.953125 26.796875 -8.550781 28.640625 -9.75 C 30.484375 -10.957031 31.953125 -12.515625 33.046875 -14.421875 C 34.140625 -16.335938 34.6875 -18.226562 34.6875 -20.09375 C 34.6875 -22.40625 33.8125 -24.363281 32.0625 -25.96875 C 30.3125 -27.570312 28.210938 -28.375 25.765625 -28.375 C 23.878906 -28.375 22.003906 -27.859375 20.140625 -26.828125 C 18.273438 -25.804688 16.769531 -24.425781 15.625 -22.6875 C 14.488281 -20.957031 13.921875 -19.03125 13.921875 -16.90625 C 13.921875 -14.300781 14.726562 -12.15625 16.34375 -10.46875 C 17.96875 -8.789062 20.050781 -7.953125 22.59375 -7.953125 Z M 22.59375 -7.953125 "/></g></g></g><g fill="#ffffff" fill-opacity="1"><g transform="translate(304.786866, 255.125962)"><g><path d="M 32.125 -23.609375 C 31.195312 -27.460938 28.835938 -29.390625 25.046875 -29.390625 C 23.054688 -29.390625 21.1875 -28.738281 19.4375 -27.4375 C 17.6875 -26.132812 16.296875 -24.414062 15.265625 -22.28125 C 14.242188 -20.144531 13.734375 -17.96875 13.734375 -15.75 C 13.734375 -12.988281 14.453125 -10.765625 15.890625 -9.078125 C 17.335938 -7.390625 19.28125 -6.546875 21.71875 -6.546875 C 23.9375 -6.546875 25.800781 -7.109375 27.3125 -8.234375 C 28.820312 -9.359375 29.816406 -10.898438 30.296875 -12.859375 L 22.59375 -12.859375 L 23.796875 -20.28125 L 42.53125 -20.28125 C 41.695312 -15.207031 40.289062 -11.203125 38.3125 -8.265625 C 36.34375 -5.328125 33.835938 -3.015625 30.796875 -1.328125 C 27.765625 0.359375 24.304688 1.203125 20.421875 1.203125 C 15.410156 1.203125 11.390625 -0.207031 8.359375 -3.03125 C 5.328125 -5.863281 3.8125 -9.640625 3.8125 -14.359375 C 3.8125 -18.492188 4.789062 -22.34375 6.75 -25.90625 C 8.707031 -29.476562 11.453125 -32.304688 14.984375 -34.390625 C 18.515625 -36.484375 22.476562 -37.53125 26.875 -37.53125 C 34.550781 -37.53125 39.484375 -34.140625 41.671875 -27.359375 Z M 32.125 -23.609375 "/></g></g></g></svg>