<svg version="1.2" xmlns="http://www.w3.org/2000/svg" viewBox="0 0 48 48" width="48" height="48">
	<title>visa-svg</title>
	<style>
		.s0 { fill: #1565c0 } 
		.s1 { fill: #ffffff } 
		.s2 { fill: #ffc107 } 
	</style>
	<path class="s0" d="m45 35c0 2.2-1.8 4-4 4h-34c-2.2 0-4-1.8-4-4v-22c0-2.2 1.8-4 4-4h34c2.2 0 4 1.8 4 4z"/>
	<path fill-rule="evenodd" class="s1" d="m18.3 19l-4.4 11h-3.2l-2.6-10.1c0 0 2.2-0.2 3.7 3.2 0.1 0.4 0.8 3.7 0.8 3.7l2.6-7.8zm1.1 0h2.9l-1.7 11h-2.9zm20.9 11h-2.7l-0.3-1.6h-3.6l-0.5 1.6h-2.9l4.7-11h3zm-3.3-3.7l-0.8-4.1-1.6 4.1zm-6.5-0.1c0 2.3-2.9 3.8-4.9 3.8-2.1 0-3.2-0.6-3.2-0.6l0.5-2.2c0 0 1.1 0.6 2.8 0.6 1.7 0 1.9-0.7 1.9-1 0-1.7-4-1.2-4-4.5 0-1.9 1.6-3.3 4.6-3.3 1.3 0 2.7 0.5 2.7 0.5l-0.5 2.3c0 0-1.1-0.7-2-0.7-1.4 0-1.9 0.5-1.9 1.1 0 1.2 4 1.4 4 4z"/>
	<path class="s2" d="m12.2 24.9l-1-4.7c0 0-0.4-1-1.5-1-1.2 0-4.5 0-4.5 0 0 0 5.7 1.6 7 5.7z"/>
</svg>