<svg xmlns="http://www.w3.org/2000/svg" xmlns:xlink="http://www.w3.org/1999/xlink" width="500" zoomAndPan="magnify" viewBox="0 0 375 374.999991" height="500" preserveAspectRatio="xMidYMid meet" version="1.0"><defs><g/><clipPath id="15769e5479"><path d="M 261 59 L 324.652344 59 L 324.652344 161 L 261 161 Z M 261 59 " clip-rule="nonzero"/></clipPath><clipPath id="82f417bf02"><path d="M 119 112 L 289 112 L 289 264.703125 L 119 264.703125 Z M 119 112 " clip-rule="nonzero"/></clipPath></defs><path fill="#ffffff" d="M 110.027344 149.953125 C 119.445312 129.578125 79.683594 84.15625 79.683594 84.15625 L 80.082031 83.519531 C 74.511719 82.550781 68.703125 84.695312 64.996094 89.34375 C 58.527344 97.480469 50.328125 113.394531 57.441406 137.167969 C 57.449219 137.203125 57.460938 137.234375 57.46875 137.269531 C 58.894531 142 61.089844 146.464844 63.8125 150.589844 L 68.511719 157.703125 C 69.15625 158.414062 69.8125 159.070312 70.472656 159.703125 C 70.480469 159.703125 100.609375 170.324219 110.027344 149.953125 Z M 110.027344 149.953125 " fill-opacity="1" fill-rule="nonzero"/><path fill="#ffffff" d="M 112.726562 81.796875 C 112.726562 81.796875 124.773438 100.230469 149.851562 97.492188 C 174.878906 94.765625 156.484375 9.964844 156.414062 9.625 C 152.15625 6.949219 147.519531 6.414062 142.816406 8.359375 C 139.945312 9.539062 109.644531 21.375 109.3125 61.042969 C 109.242188 69.042969 110.550781 75.902344 112.726562 81.796875 Z M 112.726562 81.796875 " fill-opacity="1" fill-rule="nonzero"/><path fill="#ffffff" d="M 231.382812 88.140625 C 269.421875 89.515625 240.335938 10.144531 240.234375 9.875 C 232.800781 4.085938 223.101562 1.957031 210.742188 6.316406 C 210.742188 6.316406 194.8125 13.609375 195.597656 43.886719 C 196.011719 59.800781 198.71875 72.863281 202.96875 82.71875 C 210.078125 85.503906 219.375 87.699219 231.382812 88.140625 Z M 231.382812 88.140625 " fill-opacity="1" fill-rule="nonzero"/><path fill="#ffffff" d="M 293.019531 145.769531 C 324.015625 137.992188 309.734375 68.339844 309.734375 68.339844 C 305.535156 63.332031 300.460938 61.792969 294.875 65.230469 C 294.875 65.230469 267.871094 93.449219 265.503906 121.914062 C 265 127.929688 265.105469 132.953125 265.644531 137.15625 C 271.023438 144.007812 279.5625 149.152344 293.019531 145.769531 Z M 293.019531 145.769531 " fill-opacity="1" fill-rule="nonzero"/><path fill="#000000" d="M 115.875 166.40625 C 117.636719 164.34375 119.003906 161.914062 119.890625 159.355469 C 120.785156 156.796875 121.210938 154.140625 121.335938 151.519531 C 121.597656 146.253906 120.636719 141.144531 119.289062 136.191406 C 117.921875 131.246094 116.015625 126.417969 113.945312 121.757812 C 111.882812 117.085938 109.6875 112.410156 107.214844 107.847656 C 104.75 103.277344 102.035156 98.796875 98.839844 94.601562 C 97.265625 92.496094 95.523438 90.484375 93.625 88.601562 C 91.722656 86.722656 89.640625 84.980469 87.300781 83.542969 C 86.691406 83.199219 86.15625 82.824219 85.472656 82.519531 L 84.496094 82.054688 L 83.484375 81.671875 C 82.808594 81.394531 82.101562 81.253906 81.40625 81.046875 C 80.699219 80.925781 79.988281 80.75 79.273438 80.707031 C 77.84375 80.523438 76.402344 80.601562 74.992188 80.757812 C 73.582031 80.960938 72.203125 81.289062 70.890625 81.789062 C 68.246094 82.769531 65.902344 84.382812 63.980469 86.332031 C 63.535156 86.835938 63.039062 87.367188 62.65625 87.855469 C 62.28125 88.34375 61.90625 88.835938 61.53125 89.316406 C 60.820312 90.316406 60.105469 91.308594 59.480469 92.335938 C 56.875 96.410156 55.003906 100.765625 53.726562 105.089844 C 52.460938 109.417969 51.835938 113.734375 51.660156 117.816406 C 51.433594 121.914062 51.859375 125.753906 52.296875 129.296875 C 52.636719 131.046875 52.871094 132.761719 53.269531 134.355469 C 53.679688 135.957031 54.003906 137.472656 54.445312 138.949219 C 56.230469 144.855469 58.660156 149.171875 60.402344 152.027344 C 62.097656 154.722656 63.023438 156.195312 63.023438 156.195312 C 63.023438 156.195312 66.398438 158.851562 67.878906 158.109375 C 68.625 157.734375 68.894531 156.515625 68.027344 153.679688 C 67.609375 152.277344 66.851562 150.40625 65.839844 148.167969 C 64.875 145.941406 63.710938 143.214844 62.644531 139.804688 C 60.777344 133.074219 57.703125 121.707031 60.269531 109.207031 C 60.921875 106.097656 61.914062 102.9375 63.316406 99.839844 C 63.648438 99.050781 64.039062 98.292969 64.441406 97.527344 C 64.816406 96.75 65.285156 96.019531 65.710938 95.253906 C 66.164062 94.511719 66.640625 93.765625 67.136719 93.035156 L 67.902344 91.953125 C 68.15625 91.582031 68.375 91.355469 68.609375 91.046875 C 70.507812 88.757812 73.351562 87.164062 76.4375 86.765625 C 77.976562 86.558594 79.570312 86.652344 81.109375 87.054688 L 82.25 87.417969 L 83.363281 87.898438 L 84.53125 88.515625 L 85.679688 89.21875 C 88.710938 91.179688 91.492188 93.816406 93.984375 96.707031 C 96.472656 99.613281 98.738281 102.746094 100.789062 105.960938 C 104.890625 112.394531 108.296875 119.042969 111.226562 125.320312 C 112.640625 128.460938 113.953125 131.519531 114.9375 134.519531 C 115.980469 137.496094 116.730469 140.398438 117.21875 143.148438 C 117.746094 145.898438 117.90625 148.507812 117.824219 150.875 C 117.746094 153.238281 117.375 155.378906 116.765625 157.160156 C 115.625 160.746094 113.429688 163.910156 110.550781 166.042969 C 107.6875 168.214844 104.34375 169.433594 101.085938 170.105469 C 100.261719 170.351562 99.492188 170.445312 98.660156 170.488281 C 97.847656 170.53125 97.046875 170.550781 96.253906 170.523438 C 94.664062 170.503906 93.121094 170.324219 91.632812 170.132812 C 88.65625 169.707031 85.921875 168.957031 83.460938 168.101562 C 78.542969 166.34375 74.824219 164.019531 72.214844 162.246094 C 71.5625 161.792969 70.96875 161.394531 70.421875 161.050781 C 69.90625 160.671875 69.460938 160.339844 69.054688 160.085938 C 68.253906 159.5625 67.667969 159.300781 67.332031 159.335938 C 66.660156 159.40625 66.113281 159.539062 66.304688 160.3125 C 66.40625 160.703125 66.6875 161.246094 67.242188 162.027344 C 67.519531 162.417969 67.859375 162.871094 68.289062 163.375 C 68.75 163.847656 69.289062 164.386719 69.925781 164.988281 C 70.246094 165.285156 70.59375 165.605469 70.953125 165.945312 C 71.351562 166.25 71.769531 166.570312 72.210938 166.910156 C 72.65625 167.242188 73.128906 167.597656 73.632812 167.972656 C 74.144531 168.332031 74.71875 168.660156 75.304688 169.027344 C 77.652344 170.503906 80.691406 171.953125 84.488281 173.117188 C 88.308594 174.265625 92.828125 175.128906 98.386719 174.882812 C 99.113281 174.824219 99.816406 174.78125 100.730469 174.632812 C 101.433594 174.457031 102.148438 174.277344 102.878906 174.09375 C 104.28125 173.742188 105.789062 173.257812 107.285156 172.613281 C 110.28125 171.339844 113.378906 169.347656 115.875 166.40625 Z M 115.875 166.40625 " fill-opacity="1" fill-rule="nonzero"/><path fill="#000000" d="M 105.902344 51.921875 C 105.394531 57.34375 105.378906 62.925781 106.074219 68.667969 C 106.484375 71.523438 106.960938 74.414062 107.773438 77.261719 C 108.121094 78.703125 108.636719 80.105469 109.09375 81.527344 C 109.644531 82.925781 110.132812 84.34375 110.792969 85.710938 C 113.246094 91.238281 116.789062 96.375 121.074219 100.804688 C 125.398438 105.210938 130.476562 108.910156 136.097656 111.59375 C 138.917969 112.941406 141.835938 114.0625 145.0625 114.742188 C 145.875 114.90625 146.707031 115.039062 147.625 115.09375 L 148.335938 115.125 C 148.574219 115.132812 148.867188 115.101562 149.136719 115.089844 L 149.53125 115.058594 L 149.835938 115.011719 L 150.453125 114.910156 C 151.28125 114.796875 152.0625 114.570312 152.863281 114.394531 C 153.648438 114.179688 154.414062 113.914062 155.1875 113.671875 C 161.300781 111.480469 166.453125 107.207031 170.089844 102.171875 C 170.902344 100.851562 171.789062 99.578125 172.519531 98.230469 C 173.171875 96.855469 173.910156 95.507812 174.476562 94.121094 C 174.992188 92.710938 175.503906 91.308594 176.011719 89.917969 C 176.382812 88.496094 176.757812 87.078125 177.125 85.667969 C 178.34375 80 178.984375 74.371094 178.984375 68.964844 C 178.996094 67.613281 179.011719 66.265625 179.03125 64.933594 C 178.988281 63.613281 178.953125 62.304688 178.910156 61.007812 C 178.839844 59.710938 178.769531 58.429688 178.691406 57.152344 C 178.585938 55.878906 178.488281 54.621094 178.378906 53.375 C 177.90625 48.386719 177.191406 43.609375 176.226562 39.117188 C 174.304688 30.140625 171.429688 22.246094 167.589844 16.152344 C 165.675781 13.105469 163.542969 10.503906 161.261719 8.507812 C 158.976562 6.5 156.5625 5.121094 154.414062 4.320312 C 152.261719 3.496094 150.402344 3.320312 149.191406 3.214844 C 148.574219 3.175781 148.109375 3.207031 147.796875 3.199219 C 147.484375 3.207031 147.320312 3.207031 147.320312 3.207031 C 147.320312 3.207031 147.230469 3.234375 147.066406 3.285156 C 146.910156 3.347656 146.683594 3.441406 146.40625 3.554688 C 145.867188 3.785156 145.160156 4.105469 144.53125 4.585938 C 144.210938 4.816406 143.898438 5.054688 143.621094 5.304688 C 143.351562 5.566406 143.121094 5.847656 142.933594 6.117188 C 142.558594 6.65625 142.382812 7.175781 142.496094 7.597656 C 142.609375 8.023438 143.011719 8.371094 143.757812 8.597656 C 144.132812 8.71875 144.578125 8.769531 145.140625 8.894531 C 145.414062 8.945312 145.714844 8.996094 146.03125 9.03125 C 146.351562 9.074219 146.699219 9.164062 147.058594 9.222656 C 148.511719 9.511719 150.3125 9.960938 152.316406 11.148438 C 154.308594 12.359375 156.5625 14.308594 158.765625 17.535156 C 160.992188 20.703125 163.40625 25.285156 165.417969 31.097656 C 167.453125 36.894531 169.125 43.851562 170.230469 51.5625 C 170.796875 55.410156 171.1875 59.457031 171.457031 63.621094 C 171.640625 67.765625 171.804688 71.984375 171.5 76.226562 L 171.429688 77.828125 L 171.230469 79.410156 C 171.09375 80.464844 170.960938 81.523438 170.828125 82.585938 C 170.777344 83.125 170.671875 83.640625 170.542969 84.15625 L 170.203125 85.714844 L 169.863281 87.28125 C 169.804688 87.542969 169.757812 87.808594 169.683594 88.070312 L 169.4375 88.820312 C 169.113281 89.828125 168.792969 90.839844 168.464844 91.851562 C 168.089844 92.839844 167.628906 93.78125 167.21875 94.757812 C 166.84375 95.765625 166.25 96.609375 165.746094 97.535156 C 165.476562 97.984375 165.25 98.472656 164.945312 98.882812 L 164.023438 100.136719 C 163.703125 100.546875 163.429688 101 163.089844 101.382812 L 162.039062 102.523438 C 161.375 103.332031 160.566406 103.976562 159.792969 104.664062 C 159.59375 104.835938 159.410156 105.011719 159.207031 105.175781 L 158.574219 105.621094 L 157.3125 106.519531 C 156.875 106.789062 156.421875 107.039062 155.972656 107.292969 L 155.300781 107.683594 L 154.597656 108.007812 C 152.757812 108.917969 150.714844 109.570312 148.800781 109.886719 C 148.179688 109.980469 147.117188 109.921875 146.136719 109.761719 C 145.140625 109.597656 144.117188 109.363281 143.113281 109.074219 C 139.066406 107.890625 135.183594 106.054688 131.703125 103.816406 C 128.195312 101.605469 125.105469 98.9375 122.40625 96.097656 C 117.058594 90.34375 113.648438 83.675781 111.761719 77.523438 C 109.933594 71.339844 109.402344 65.726562 109.4375 61.382812 C 109.476562 52.675781 111.054688 44.304688 114.003906 37.191406 C 116.914062 30.054688 121.082031 24.257812 125.242188 19.949219 C 129.402344 15.613281 133.460938 12.652344 136.4375 10.582031 C 139.421875 8.519531 141.371094 7.308594 141.589844 6.601562 C 141.789062 5.914062 141.851562 5.324219 140.988281 5.210938 C 140.09375 5.125 138.117188 5.5 134.566406 7.257812 C 131.074219 9.050781 125.785156 12.175781 119.765625 18.886719 C 118.277344 20.566406 116.789062 22.5 115.308594 24.675781 C 113.855469 26.875 112.449219 29.339844 111.160156 32.082031 C 108.636719 37.566406 106.605469 44.25 105.902344 51.921875 Z M 105.902344 51.921875 " fill-opacity="1" fill-rule="nonzero"/><path fill="#000000" d="M 222.710938 98.96875 C 221.761719 98.777344 220.820312 98.527344 220.011719 98.132812 C 219.613281 97.988281 219.132812 97.65625 218.671875 97.386719 C 218.21875 97.089844 217.714844 96.878906 217.289062 96.5 C 216.84375 96.160156 216.398438 95.820312 215.949219 95.480469 C 215.496094 95.148438 215.101562 94.707031 214.667969 94.332031 C 213.789062 93.589844 213.039062 92.652344 212.230469 91.769531 C 209.121094 88.097656 206.683594 83.511719 204.734375 78.628906 C 202.800781 73.726562 201.390625 68.460938 200.375 63.054688 C 199.347656 57.648438 198.789062 52.078125 198.519531 46.480469 C 198.328125 43.660156 198.390625 40.933594 198.433594 38.183594 L 198.746094 34.09375 C 198.921875 32.746094 199.148438 31.414062 199.339844 30.078125 C 200.285156 24.761719 202.191406 19.722656 205.023438 15.492188 C 206.46875 13.410156 208.164062 11.523438 210.046875 10.066406 C 210.523438 9.710938 210.996094 9.378906 211.464844 9.09375 L 211.71875 8.953125 C 211.792969 8.917969 211.832031 8.894531 211.933594 8.867188 L 212.785156 8.605469 C 213.394531 8.421875 213.996094 8.203125 214.613281 8.054688 L 216.445312 7.613281 C 218.890625 7.117188 221.328125 6.820312 223.703125 6.875 C 226.078125 6.953125 228.371094 7.335938 230.539062 8.023438 C 234.898438 9.363281 238.582031 12.078125 241.574219 15.21875 C 244.558594 18.40625 246.851562 22.070312 248.695312 25.71875 C 252.308594 33.09375 254.179688 40.378906 255.285156 46.460938 C 255.414062 47.226562 255.539062 47.96875 255.667969 48.691406 C 255.765625 49.363281 255.859375 50.015625 255.953125 50.648438 C 255.988281 52.015625 256.03125 53.296875 256.058594 54.496094 C 256.128906 57.023438 256.191406 59.191406 256.242188 60.964844 C 256.335938 64.5 256.382812 66.433594 256.382812 66.433594 C 256.382812 66.433594 258 70.933594 259.730469 71.070312 C 260.59375 71.140625 261.484375 70.121094 262.214844 66.894531 C 262.585938 65.289062 262.902344 63.125 263.164062 60.285156 C 263.292969 58.859375 263.414062 57.265625 263.503906 55.480469 C 263.546875 54.585938 263.589844 53.652344 263.632812 52.660156 C 263.648438 52.164062 263.667969 51.660156 263.691406 51.136719 C 263.695312 50.875 263.703125 50.613281 263.710938 50.34375 C 263.738281 49.855469 263.632812 49.273438 263.625 49.082031 C 263.214844 44.566406 262.246094 38.855469 260.125 32.429688 C 259.0625 29.21875 257.714844 25.832031 255.953125 22.386719 C 254.195312 18.9375 251.957031 15.4375 249.113281 12.113281 C 248.425781 11.269531 247.617188 10.492188 246.851562 9.675781 C 246.015625 8.917969 245.230469 8.101562 244.300781 7.394531 C 242.542969 5.898438 240.53125 4.59375 238.40625 3.460938 C 236.273438 2.3125 233.929688 1.492188 231.53125 0.867188 C 229.117188 0.28125 226.628906 0.015625 224.15625 -0.0195312 C 221.691406 0.03125 219.210938 0.230469 216.835938 0.769531 C 214.414062 1.234375 212.171875 1.964844 209.835938 2.816406 C 209.652344 2.886719 209.425781 2.945312 209.203125 3.0625 C 208.984375 3.175781 208.773438 3.289062 208.558594 3.417969 C 208.199219 3.625 207.949219 3.808594 207.660156 4.007812 C 207.078125 4.390625 206.589844 4.808594 206.066406 5.21875 C 205.582031 5.652344 205.085938 6.070312 204.628906 6.523438 L 203.300781 7.898438 C 201.628906 9.796875 200.207031 11.859375 199.015625 14.003906 C 196.621094 18.304688 195.1875 22.960938 194.402344 27.566406 C 193.636719 32.179688 193.304688 36.78125 193.53125 41.230469 C 193.578125 42.34375 193.566406 43.460938 193.664062 44.546875 C 193.757812 45.628906 193.84375 46.714844 193.933594 47.792969 C 194.074219 49.945312 194.402344 52.058594 194.628906 54.148438 C 194.90625 56.230469 195.253906 58.285156 195.585938 60.296875 C 195.785156 61.296875 195.980469 62.296875 196.179688 63.28125 C 196.363281 64.265625 196.578125 65.238281 196.824219 66.195312 C 198.644531 73.863281 201.121094 80.761719 204.210938 86.332031 C 205.675781 89.160156 207.410156 91.5625 209.035156 93.703125 C 210.777344 95.75 212.4375 97.535156 214.121094 98.847656 L 215.363281 99.851562 L 216.695312 100.71875 C 217.566406 101.304688 218.496094 101.832031 219.480469 102.183594 C 221.429688 102.949219 223.492188 103.296875 225.515625 103.390625 C 229.578125 103.550781 233.503906 102.773438 237.023438 101.484375 C 240.566406 100.222656 243.707031 98.414062 246.414062 96.410156 C 249.097656 94.375 251.339844 92.101562 253.089844 89.796875 C 254.847656 87.496094 256.121094 85.15625 257.007812 82.996094 C 257.488281 81.933594 257.78125 80.871094 258.097656 79.90625 C 258.324219 78.914062 258.601562 78.019531 258.703125 77.171875 C 259 75.5 259.007812 74.117188 258.96875 73.125 C 258.871094 72.117188 258.703125 71.496094 258.445312 71.261719 C 257.949219 70.800781 257.46875 70.53125 256.972656 71.148438 C 256.722656 71.453125 256.46875 71.984375 256.214844 72.804688 C 255.886719 73.621094 255.605469 74.746094 255.09375 76.199219 C 254.890625 76.945312 254.519531 77.730469 254.207031 78.652344 C 253.820312 79.542969 253.414062 80.535156 252.855469 81.597656 C 251.769531 83.71875 250.253906 86.183594 247.902344 88.726562 C 245.585938 91.285156 242.382812 93.9375 238.109375 96.078125 C 235.976562 97.148438 233.566406 98.046875 230.9375 98.621094 C 229.625 98.917969 228.257812 99.109375 226.871094 99.171875 C 225.488281 99.28125 224.070312 99.230469 222.710938 98.96875 Z M 222.710938 98.96875 " fill-opacity="1" fill-rule="nonzero"/><g clip-path="url(#15769e5479)"><path fill="#000000" d="M 264.605469 107.429688 C 263.207031 112.007812 262.4375 117.023438 262.039062 122.125 C 261.796875 127.121094 261.828125 132.300781 262.578125 137.59375 L 262.882812 139.585938 C 262.980469 140.25 263.179688 140.917969 263.320312 141.582031 C 263.484375 142.25 263.625 142.914062 263.808594 143.582031 L 264.46875 145.574219 L 264.800781 146.566406 L 265.234375 147.542969 C 265.53125 148.195312 265.792969 148.855469 266.128906 149.492188 L 267.21875 151.382812 C 267.582031 152.015625 268.078125 152.59375 268.5 153.199219 C 270.328125 155.550781 272.761719 157.589844 275.59375 158.867188 C 278.394531 160.214844 281.722656 160.488281 284.402344 160.425781 C 289.949219 160.332031 295.429688 159.363281 300.636719 157.414062 C 305.824219 155.480469 310.691406 152.425781 314.476562 148.34375 C 318.308594 144.296875 320.882812 139.292969 322.390625 134.261719 C 323.9375 129.226562 324.367188 124.050781 324.453125 119.269531 C 324.625 109.761719 323.980469 100.796875 322.617188 92.773438 C 321.25 84.761719 319.1875 77.667969 316.304688 71.96875 C 314.859375 69.128906 313.199219 66.621094 311.292969 64.613281 C 309.402344 62.601562 307.183594 61.113281 305.074219 60.355469 C 304.8125 60.261719 304.554688 60.171875 304.308594 60.078125 C 304.050781 60 303.789062 59.953125 303.550781 59.894531 C 303.054688 59.796875 302.59375 59.667969 302.152344 59.632812 C 301.273438 59.582031 300.515625 59.484375 299.929688 59.570312 C 299.332031 59.625 298.878906 59.660156 298.582031 59.6875 C 298.285156 59.730469 298.140625 59.773438 298.140625 59.773438 C 298.140625 59.773438 297.808594 59.945312 297.335938 60.222656 C 296.847656 60.484375 296.285156 60.945312 295.777344 61.453125 C 295.246094 61.9375 294.847656 62.550781 294.605469 63.105469 C 294.367188 63.65625 294.292969 64.160156 294.472656 64.542969 C 294.648438 64.933594 295.074219 65.203125 295.777344 65.328125 C 296.464844 65.441406 297.46875 65.429688 298.746094 65.527344 C 300.027344 65.605469 301.507812 65.917969 303.019531 66.910156 C 304.535156 67.886719 306.222656 69.757812 307.878906 72.75 C 311.238281 78.695312 314.753906 89.953125 316.324219 103.714844 C 316.738281 107.152344 317.042969 110.746094 317.226562 114.449219 C 317.304688 116.308594 317.375 118.183594 317.402344 120.085938 C 317.4375 121.054688 317.386719 121.925781 317.386719 122.855469 C 317.394531 123.777344 317.316406 124.683594 317.246094 125.597656 C 316.964844 129.253906 316.246094 132.890625 314.945312 136.3125 C 314.234375 137.992188 313.484375 139.671875 312.476562 141.199219 C 312.023438 142 311.4375 142.703125 310.917969 143.460938 C 310.316406 144.15625 309.765625 144.894531 309.097656 145.539062 C 303.988281 150.921875 296.519531 154.105469 289.035156 155.289062 C 287.160156 155.59375 285.273438 155.777344 283.425781 155.820312 C 281.546875 155.882812 279.910156 155.71875 278.28125 155.1875 C 275.035156 154.160156 272.320312 151.824219 270.519531 148.972656 C 268.691406 146.132812 267.523438 142.945312 266.828125 139.828125 C 266.59375 139.0625 266.53125 138.261719 266.375 137.496094 C 266.253906 136.722656 266.078125 135.964844 266.015625 135.207031 C 265.886719 133.691406 265.675781 132.214844 265.636719 130.785156 C 265.601562 129.351562 265.539062 127.964844 265.539062 126.640625 C 265.589844 125.308594 265.632812 124.03125 265.675781 122.8125 C 265.6875 122.507812 265.695312 122.210938 265.710938 121.914062 C 265.746094 121.613281 265.78125 121.324219 265.816406 121.039062 C 265.886719 120.46875 265.949219 119.90625 266.019531 119.363281 C 266.171875 118.277344 266.261719 117.242188 266.445312 116.292969 C 267.925781 108.691406 270.742188 101.730469 273.773438 95.617188 C 276.8125 89.492188 280.121094 84.191406 283.070312 79.769531 C 288.980469 70.921875 293.378906 65.472656 293.148438 64.109375 C 293.039062 63.4375 292.878906 62.878906 292.0625 63.132812 C 291.289062 63.367188 289.902344 64.335938 287.597656 66.753906 C 285.308594 69.183594 282.035156 73.039062 277.863281 79.332031 C 276.800781 80.890625 275.765625 82.664062 274.601562 84.539062 C 274.058594 85.511719 273.496094 86.515625 272.914062 87.558594 C 272.625 88.082031 272.328125 88.613281 272.03125 89.152344 C 271.753906 89.707031 271.46875 90.273438 271.179688 90.855469 C 268.792969 95.4375 266.46875 100.902344 264.605469 107.429688 Z M 264.605469 107.429688 " fill-opacity="1" fill-rule="nonzero"/></g><g clip-path="url(#82f417bf02)"><path fill="#ffffff" d="M 286.988281 219.191406 C 285.054688 224.085938 279.851562 227.382812 274.625 227.183594 C 272.039062 227.183594 269.429688 226.511719 267.203125 225.179688 C 264.957031 223.8125 263.199219 221.753906 262.117188 219.375 L 261.449219 217.53125 C 261.246094 216.921875 261.222656 216.25 261.109375 215.613281 C 260.847656 214.328125 260.839844 213.117188 260.683594 211.871094 C 260.367188 209.390625 259.847656 206.945312 259.132812 204.535156 C 258.652344 202.898438 258.253906 201.191406 257.851562 199.457031 C 257.058594 196.148438 255.398438 193.183594 253.097656 190.832031 C 251.421875 189.097656 249.390625 187.691406 247.101562 186.707031 L 244.414062 185.574219 L 242.914062 184.929688 C 242.765625 188.890625 243.878906 202.644531 243.230469 206.578125 C 243.203125 206.699219 243.195312 206.839844 243.167969 206.960938 C 242.609375 210.261719 241.871094 213.550781 240.753906 216.832031 C 239.519531 220.175781 238.101562 223.648438 235 226.558594 C 234.191406 227.277344 233.269531 227.933594 232.183594 228.386719 C 231.136719 228.84375 229.855469 229.089844 228.777344 229.070312 C 226.679688 229.097656 224.558594 228.480469 222.816406 227.496094 C 219.300781 225.476562 217.070312 222.351562 215.382812 219.234375 C 213.753906 216.042969 212.667969 212.699219 211.933594 209.328125 C 211.160156 205.953125 210.855469 202.503906 210.804688 199.085938 C 210.714844 192.765625 211.621094 186.453125 213.507812 180.492188 C 213.648438 180.011719 213.796875 179.542969 213.953125 179.0625 L 214.746094 179.296875 C 212.902344 185.671875 212.136719 192.371094 212.527344 198.996094 C 212.917969 205.578125 214.320312 212.253906 217.515625 218.027344 C 219.132812 220.863281 221.25 223.527344 224.121094 225.042969 C 226.921875 226.539062 230.617188 226.703125 232.859375 224.308594 C 235.152344 222.074219 236.445312 218.90625 237.449219 215.78125 C 238.441406 212.648438 239.050781 209.371094 239.492188 206.074219 C 239.878906 202.96875 240.113281 199.824219 240.21875 196.71875 C 240.320312 193.191406 240.226562 189.667969 239.980469 186.167969 C 239.910156 185.390625 239.839844 184.609375 239.753906 183.832031 C 239.503906 181.300781 239.152344 178.777344 238.65625 176.296875 C 237.960938 173.066406 237.109375 169.84375 235.644531 166.917969 C 234.234375 163.933594 232.382812 161.167969 230.058594 158.886719 C 227.777344 156.570312 224.828125 154.941406 221.699219 154.148438 C 220.125 153.757812 218.480469 153.59375 216.851562 153.550781 L 214.34375 153.515625 C 213.449219 153.472656 212.585938 153.289062 211.75 153.113281 C 208.480469 152.304688 205.285156 151.488281 202.003906 151.085938 C 198.746094 150.6875 195.414062 150.582031 192.148438 150.972656 C 188.890625 151.3125 185.777344 152.382812 183.175781 154.367188 C 178.011719 158.371094 174.921875 164.519531 172.683594 170.699219 C 172.117188 172.257812 171.621094 173.847656 171.144531 175.425781 C 170.683594 176.992188 170.300781 178.695312 169.542969 180.273438 C 168.027344 183.441406 165.496094 185.972656 162.742188 187.925781 C 159.949219 189.917969 156.910156 191.449219 153.875 192.835938 C 152.351562 193.558594 150.808594 194.210938 149.355469 194.949219 C 148.683594 195.324219 147.910156 195.75 147.511719 196.195312 L 147.378906 196.34375 C 147.394531 196.402344 147.394531 196.414062 147.355469 196.453125 C 147.371094 196.472656 147.371094 196.488281 147.351562 196.5 L 147.421875 196.769531 C 147.507812 197.109375 147.640625 197.4375 147.824219 197.785156 C 148.5625 199.117188 149.679688 200.425781 150.660156 201.773438 C 151.671875 203.125 152.613281 204.566406 153.457031 206.023438 C 154.308594 207.492188 155.101562 209 155.769531 210.558594 C 156.46875 212.082031 157.050781 213.691406 157.71875 215.160156 C 158.445312 216.582031 159.28125 217.957031 160.382812 219.070312 C 161.5 220.148438 162.898438 220.878906 164.390625 221.070312 C 165.109375 221.132812 165.867188 221.082031 166.589844 220.847656 C 166.765625 220.828125 166.949219 220.75 167.078125 220.6875 L 167.660156 220.421875 L 168.800781 219.90625 C 170.308594 219.167969 171.882812 218.554688 173.457031 217.90625 C 176.59375 216.71875 179.859375 215.734375 183.242188 215.207031 C 186.601562 214.683594 190.148438 214.683594 193.503906 215.789062 C 196.855469 216.9375 199.703125 219.429688 201.304688 222.535156 C 202.917969 225.601562 203.640625 228.957031 203.683594 232.40625 C 204.902344 237.453125 205.109375 242.644531 203.953125 247.707031 C 203.324219 250.226562 202.308594 252.695312 200.84375 254.875 C 199.355469 257.042969 197.433594 258.894531 195.246094 260.3125 C 193.054688 261.765625 190.632812 262.734375 188.152344 263.480469 C 185.664062 264.152344 183.097656 264.570312 180.570312 264.78125 C 175.4375 265.234375 170.378906 264.710938 165.347656 264.441406 C 160.296875 264.046875 155.257812 263.664062 150.234375 262.785156 C 145.253906 261.898438 140.144531 260.722656 135.679688 257.917969 C 133.476562 256.476562 131.582031 254.59375 130.074219 252.453125 C 128.65625 250.261719 127.464844 247.96875 126.59375 245.566406 C 124.757812 240.816406 123.171875 236.046875 121.875 231.101562 C 120.648438 226.183594 119.839844 221.082031 119.960938 215.960938 C 120.070312 210.816406 121.195312 205.707031 123.242188 200.992188 C 125.304688 196.28125 128.1875 191.964844 131.5625 188.152344 C 132.371094 187.152344 133.304688 186.304688 134.164062 185.363281 C 135.035156 184.453125 135.925781 183.511719 136.875 182.695312 L 139.710938 180.132812 C 140.632812 179.296875 141.582031 178.488281 142.433594 177.59375 C 145.960938 174.128906 148.824219 170 150.824219 165.476562 C 152.84375 160.921875 153.898438 156.039062 154.519531 151.070312 C 155.214844 146.125 155.28125 141.03125 156.894531 136.027344 C 157.710938 133.589844 159.234375 131.179688 161.378906 129.621094 C 163.371094 128.070312 165.417969 126.574219 167.511719 125.15625 C 171.699219 122.300781 176.0625 119.679688 180.640625 117.484375 C 185.238281 115.335938 190.050781 113.542969 195.101562 112.679688 C 200.121094 111.808594 205.441406 111.878906 210.339844 113.601562 C 212.789062 114.472656 215.078125 115.703125 217.132812 117.269531 C 218.191406 118.015625 219.109375 118.902344 220.0625 119.757812 L 222.71875 122.492188 C 226.191406 126.164062 229.398438 130.109375 232.355469 134.214844 C 235.324219 138.324219 238.039062 142.554688 240.957031 146.65625 C 243.855469 150.738281 247.039062 154.613281 250.609375 158.136719 C 254.125 161.699219 258.097656 164.753906 262.109375 167.808594 C 266.132812 170.847656 270.023438 174.136719 273.589844 177.757812 C 277.140625 181.34375 280.386719 185.289062 282.964844 189.691406 C 288.277344 198.394531 290.078125 209.328125 286.988281 219.191406 Z M 286.988281 219.191406 " fill-opacity="1" fill-rule="nonzero"/><path fill="#000000" d="M 286.988281 219.191406 C 285.054688 224.085938 279.851562 227.382812 274.625 227.183594 C 272.039062 227.183594 269.429688 226.511719 267.203125 225.179688 C 264.957031 223.8125 263.199219 221.753906 262.117188 219.375 L 261.449219 217.53125 C 261.246094 216.921875 261.222656 216.25 261.109375 215.613281 C 260.847656 214.328125 260.839844 213.117188 260.683594 211.871094 C 260.367188 209.390625 259.847656 206.945312 259.132812 204.535156 C 257.722656 199.746094 255.589844 195.167969 253.039062 190.859375 L 253.097656 190.832031 L 253.777344 190.441406 C 256.546875 194.679688 258.898438 199.25 260.585938 204.113281 C 261.402344 206.554688 262.054688 209.066406 262.492188 211.644531 C 262.726562 212.871094 262.804688 214.324219 263.082031 215.34375 C 263.214844 215.894531 263.25 216.460938 263.425781 216.988281 L 264.058594 218.511719 C 265.050781 220.480469 266.550781 222.074219 268.394531 223.164062 C 270.308594 224.195312 272.496094 224.648438 274.628906 224.574219 C 275.164062 224.503906 275.699219 224.5625 276.203125 224.421875 L 277.777344 224.074219 L 279.207031 223.46875 C 279.699219 223.292969 280.074219 222.933594 280.527344 222.683594 C 282.15625 221.515625 283.472656 219.933594 284.117188 217.992188 C 284.375 217.589844 284.359375 217.007812 284.515625 216.527344 C 284.601562 216 284.757812 215.578125 284.820312 214.945312 C 284.898438 213.777344 285.054688 212.609375 285.082031 211.429688 C 285.054688 210.269531 285.117188 209.09375 284.992188 207.945312 L 284.84375 206.230469 L 284.558594 204.523438 C 283.8125 199.972656 281.984375 195.679688 279.476562 191.761719 C 276.992188 187.828125 273.824219 184.269531 270.371094 180.976562 C 266.90625 177.644531 263.144531 174.570312 259.175781 171.75 L 256.09375 169.496094 C 255.039062 168.703125 253.945312 167.957031 252.953125 167.113281 L 249.878906 164.585938 L 246.917969 161.898438 C 243.035156 158.234375 239.519531 154.148438 236.402344 149.9375 C 233.277344 145.765625 230.449219 141.597656 227.550781 137.730469 C 224.636719 133.816406 221.585938 130.195312 218.230469 126.789062 L 215.679688 124.273438 C 214.902344 123.605469 214.171875 122.917969 213.351562 122.375 C 211.777344 121.246094 210.0625 120.355469 208.253906 119.773438 C 204.613281 118.574219 200.515625 118.554688 196.308594 119.375 C 192.105469 120.175781 187.839844 121.820312 183.707031 123.867188 C 179.59375 125.945312 175.558594 128.390625 171.640625 131.109375 C 169.699219 132.492188 167.792969 133.921875 165.894531 135.410156 C 165.597656 135.652344 165.609375 135.6875 165.496094 135.789062 C 165.40625 135.863281 165.292969 135.929688 165.234375 136.035156 C 165.066406 136.199219 164.910156 136.417969 164.753906 136.636719 C 164.492188 137.113281 164.1875 137.671875 163.960938 138.480469 C 162.917969 141.640625 162.683594 146.8125 162.074219 152.0625 C 161.445312 157.363281 160.332031 163.148438 157.949219 168.589844 C 155.605469 174.039062 152.160156 179.089844 148.066406 183.207031 C 147.058594 184.261719 145.976562 185.191406 144.90625 186.191406 L 142.382812 188.566406 C 141.503906 189.328125 140.722656 190.136719 139.953125 190.964844 C 139.195312 191.808594 138.328125 192.5625 137.65625 193.445312 C 134.703125 196.8125 132.355469 200.449219 130.726562 204.226562 C 129.097656 208.015625 128.238281 212 128.160156 216.179688 C 128.082031 220.339844 128.757812 224.695312 129.890625 229.117188 C 130.476562 231.335938 131.152344 233.546875 131.910156 235.835938 C 132.71875 238.160156 133.488281 240.476562 134.320312 242.503906 C 135.121094 244.671875 136.0625 246.296875 136.984375 247.769531 C 137.945312 249.066406 138.933594 250.066406 140.25 250.929688 C 142.929688 252.644531 147.207031 253.75 151.695312 254.566406 C 156.207031 255.351562 161.125 255.777344 165.980469 256.179688 L 173.371094 256.632812 L 176.707031 256.726562 C 177.785156 256.660156 178.90625 256.703125 179.953125 256.578125 C 182.070312 256.421875 184.085938 256.101562 185.960938 255.597656 C 187.789062 255.074219 189.441406 254.378906 190.800781 253.507812 C 193.542969 251.730469 195.210938 249.277344 196.09375 245.835938 C 196.511719 244.121094 196.710938 242.21875 196.65625 240.242188 C 196.632812 239.257812 196.5625 238.253906 196.433594 237.261719 C 196.378906 236.765625 196.308594 236.269531 196.203125 235.785156 L 196.054688 235.09375 L 195.945312 234.597656 L 195.699219 233.5625 L 195.675781 232.3125 L 195.664062 231.769531 L 195.578125 230.917969 C 195.507812 230.367188 195.429688 229.785156 195.300781 229.265625 C 195.0625 228.160156 194.691406 227.167969 194.265625 226.382812 C 193.375 224.773438 192.46875 223.9375 190.929688 223.320312 C 190.144531 223.023438 189.152344 222.882812 188.082031 222.777344 C 186.941406 222.746094 185.742188 222.753906 184.410156 222.960938 C 181.816406 223.328125 179.003906 224.117188 176.226562 225.144531 C 174.816406 225.695312 173.390625 226.234375 171.988281 226.894531 L 170.941406 227.367188 L 170.414062 227.617188 C 169.53125 228.011719 169.261719 228.046875 168.757812 228.203125 C 167.035156 228.699219 165.355469 228.8125 163.625 228.644531 C 160.167969 228.28125 157.113281 226.476562 155.171875 224.492188 C 153.195312 222.507812 152.003906 220.421875 151.019531 218.441406 L 150.382812 216.953125 L 149.859375 215.667969 C 149.574219 214.980469 149.339844 214.257812 149.03125 213.628906 C 148.457031 212.289062 147.816406 211.011719 147.128906 209.789062 C 146.429688 208.527344 145.679688 207.363281 144.800781 206.144531 L 143.339844 204.148438 C 142.808594 203.410156 142.183594 202.574219 141.449219 201.207031 C 141.277344 200.894531 141.09375 200.476562 140.910156 200.042969 L 140.667969 199.414062 L 140.441406 198.625 L 140.265625 197.863281 C 140.113281 196.941406 140.136719 195.898438 140.300781 195.011719 C 140.492188 194.269531 140.753906 193.519531 141.136719 192.851562 C 141.398438 192.414062 141.667969 192.007812 141.980469 191.625 C 143.0625 190.398438 143.847656 189.945312 144.445312 189.542969 C 145.066406 189.144531 145.578125 188.882812 146.054688 188.636719 C 147.945312 187.679688 149.433594 187.078125 150.9375 186.402344 C 153.855469 185.105469 156.492188 183.832031 158.710938 182.316406 C 160.882812 180.8125 162.527344 179.148438 163.441406 177.382812 C 163.648438 176.9375 163.839844 176.496094 163.996094 176.027344 L 164.746094 173.585938 C 165.285156 171.898438 165.859375 170.199219 166.484375 168.496094 C 167.773438 165.101562 169.289062 161.730469 171.34375 158.441406 C 173.378906 155.167969 175.992188 151.957031 179.457031 149.386719 C 181.230469 148.152344 183.171875 147.039062 185.296875 146.304688 L 186.863281 145.777344 L 188.484375 145.417969 C 189.625 145.140625 190.492188 145.113281 191.46875 144.972656 C 195.292969 144.566406 199.128906 144.757812 202.785156 145.277344 C 206.425781 145.792969 210.046875 146.8125 213.066406 147.621094 L 214.050781 147.863281 C 214.3125 147.910156 214.378906 147.941406 214.613281 147.953125 L 217.027344 148.054688 C 218.917969 148.144531 220.996094 148.378906 223.035156 148.925781 C 227.074219 150.03125 230.910156 152.296875 233.695312 155.230469 C 236.523438 158.117188 238.597656 161.425781 240.121094 164.796875 C 241.78125 168.320312 242.621094 171.933594 243.296875 175.425781 C 243.882812 178.84375 244.253906 182.265625 244.421875 185.632812 C 244.4375 185.722656 244.429688 185.785156 244.445312 185.878906 C 244.558594 188.875 244.566406 191.84375 244.429688 194.828125 C 244.28125 198.789062 243.890625 202.703125 243.246094 206.632812 C 243.21875 206.753906 243.210938 206.894531 243.183594 207.015625 C 242.621094 210.320312 241.886719 213.605469 240.765625 216.886719 C 239.535156 220.230469 238.117188 223.703125 235.011719 226.617188 C 234.203125 227.332031 233.285156 227.992188 232.199219 228.445312 C 231.152344 228.898438 229.867188 229.148438 228.789062 229.125 C 226.691406 229.152344 224.574219 228.539062 222.832031 227.550781 C 219.316406 225.53125 217.085938 222.40625 215.398438 219.289062 C 213.769531 216.101562 212.683594 212.757812 211.945312 209.382812 C 211.175781 206.011719 210.871094 202.558594 210.820312 199.144531 C 210.726562 192.824219 211.636719 186.507812 213.519531 180.550781 C 213.660156 180.066406 213.8125 179.601562 213.964844 179.117188 L 214.761719 179.351562 C 212.917969 185.730469 212.152344 192.425781 212.542969 199.050781 C 212.933594 205.636719 214.335938 212.308594 217.53125 218.085938 C 219.148438 220.917969 221.265625 223.585938 224.136719 225.101562 C 226.933594 226.59375 230.632812 226.757812 232.871094 224.363281 C 235.167969 222.132812 236.457031 218.964844 237.464844 215.839844 C 238.457031 212.707031 239.066406 209.425781 239.503906 206.132812 C 239.894531 203.027344 240.128906 199.882812 240.234375 196.777344 C 240.335938 193.25 240.242188 189.726562 239.992188 186.226562 C 239.921875 185.445312 239.851562 184.667969 239.765625 183.886719 C 239.519531 181.359375 239.164062 178.835938 238.667969 176.355469 C 237.972656 173.125 237.125 169.898438 235.65625 166.972656 C 234.246094 163.988281 232.398438 161.226562 230.074219 158.945312 C 227.792969 156.628906 224.84375 154.996094 221.710938 154.203125 C 220.140625 153.8125 218.496094 153.652344 216.863281 153.609375 L 214.355469 153.574219 C 213.464844 153.53125 212.597656 153.347656 211.761719 153.167969 C 208.496094 152.363281 205.300781 151.546875 202.019531 151.144531 C 198.761719 150.746094 195.429688 150.640625 192.164062 151.03125 C 188.902344 151.371094 185.792969 152.441406 183.191406 154.421875 C 178.027344 158.425781 174.9375 164.578125 172.695312 170.757812 C 172.128906 172.316406 171.632812 173.902344 171.160156 175.484375 C 170.699219 177.050781 170.316406 178.75 169.558594 180.332031 C 168.042969 183.496094 165.511719 186.027344 162.753906 187.984375 C 159.964844 189.976562 156.921875 191.503906 153.890625 192.894531 C 152.367188 193.617188 150.824219 194.269531 149.371094 195.003906 C 148.695312 195.382812 147.925781 195.804688 147.527344 196.253906 L 147.394531 196.402344 C 147.40625 196.457031 147.40625 196.472656 147.371094 196.507812 C 147.386719 196.53125 147.386719 196.542969 147.363281 196.558594 L 147.433594 196.828125 C 147.519531 197.167969 147.65625 197.492188 147.839844 197.839844 C 148.574219 199.171875 149.695312 200.484375 150.671875 201.828125 C 151.6875 203.183594 152.628906 204.621094 153.472656 206.082031 C 154.324219 207.546875 155.117188 209.058594 155.78125 210.617188 C 156.484375 212.140625 157.066406 213.75 157.730469 215.214844 C 158.460938 216.640625 159.296875 218.015625 160.394531 219.125 C 161.515625 220.203125 162.910156 220.933594 164.40625 221.125 C 165.121094 221.1875 165.878906 221.140625 166.601562 220.90625 C 166.78125 220.882812 166.964844 220.804688 167.09375 220.742188 L 167.671875 220.480469 L 168.8125 219.964844 C 170.324219 219.226562 171.894531 218.609375 173.46875 217.964844 C 176.609375 216.773438 179.875 215.789062 183.253906 215.265625 C 186.613281 214.742188 190.164062 214.742188 193.515625 215.847656 C 196.867188 216.992188 199.714844 219.488281 201.316406 222.59375 C 202.933594 225.660156 203.65625 229.011719 203.699219 232.464844 C 204.917969 237.507812 205.125 242.703125 203.96875 247.761719 C 203.335938 250.285156 202.324219 252.75 200.855469 254.933594 C 199.371094 257.101562 197.449219 258.949219 195.257812 260.367188 C 193.070312 261.820312 190.644531 262.792969 188.167969 263.535156 C 185.679688 264.207031 183.113281 264.625 180.585938 264.839844 C 175.453125 265.292969 170.394531 264.769531 165.363281 264.5 C 160.3125 264.101562 155.273438 263.71875 150.25 262.839844 C 145.265625 261.957031 140.15625 260.777344 135.695312 257.972656 C 133.488281 256.535156 131.597656 254.648438 130.089844 252.507812 C 128.671875 250.320312 127.480469 248.023438 126.609375 245.621094 C 124.773438 240.875 123.1875 236.105469 121.890625 231.160156 C 120.664062 226.242188 119.855469 221.140625 119.976562 216.015625 C 120.082031 210.871094 121.210938 205.761719 123.257812 201.050781 C 125.320312 196.339844 128.203125 192.023438 131.578125 188.210938 C 132.382812 187.210938 133.320312 186.359375 134.175781 185.417969 C 135.046875 184.511719 135.941406 183.570312 136.890625 182.753906 L 139.726562 180.1875 C 140.648438 179.351562 141.597656 178.542969 142.445312 177.652344 C 145.976562 174.1875 148.839844 170.054688 150.835938 165.535156 C 152.855469 160.976562 153.910156 156.097656 154.535156 151.128906 C 155.230469 146.183594 155.292969 141.085938 156.910156 136.085938 C 157.722656 133.648438 159.246094 131.238281 161.394531 129.679688 C 163.386719 128.128906 165.433594 126.632812 167.523438 125.214844 C 171.710938 122.359375 176.078125 119.738281 180.65625 117.539062 C 185.253906 115.394531 190.066406 113.601562 195.117188 112.734375 C 200.132812 111.863281 205.457031 111.933594 210.351562 113.65625 C 212.804688 114.527344 215.09375 115.761719 217.148438 117.328125 C 218.203125 118.070312 219.125 118.957031 220.074219 119.816406 L 222.730469 122.550781 C 226.203125 126.222656 229.414062 130.167969 232.371094 134.269531 C 235.339844 138.378906 238.050781 142.609375 240.972656 146.714844 C 243.871094 150.796875 247.050781 154.671875 250.625 158.195312 C 254.136719 161.757812 258.113281 164.8125 262.125 167.867188 C 266.148438 170.90625 270.039062 174.195312 273.601562 177.816406 C 277.152344 181.402344 280.398438 185.347656 282.976562 189.746094 C 288.277344 198.394531 290.078125 209.328125 286.988281 219.191406 Z M 286.988281 219.191406 " fill-opacity="1" fill-rule="nonzero"/></g><path fill="#000000" d="M 243.167969 206.960938 C 242.609375 210.261719 241.871094 213.550781 240.753906 216.832031 C 239.519531 220.175781 238.101562 223.648438 235 226.558594 C 234.191406 227.277344 233.269531 227.933594 232.183594 228.386719 C 231.136719 228.84375 229.855469 229.089844 228.777344 229.070312 C 226.679688 229.097656 224.558594 228.480469 222.816406 227.496094 C 219.300781 225.476562 217.070312 222.351562 215.382812 219.234375 C 213.753906 216.042969 212.667969 212.699219 211.933594 209.328125 C 211.160156 205.953125 210.855469 202.503906 210.804688 199.085938 C 210.714844 192.765625 211.621094 186.453125 213.507812 180.492188 L 214.746094 179.296875 C 214.746094 179.296875 209.050781 209.199219 224.164062 219.488281 C 238.796875 229.410156 239.71875 186.609375 239.746094 183.832031 C 239.753906 183.746094 239.753906 183.6875 239.753906 183.6875 L 242.628906 187.117188 C 242.652344 187.132812 242.957031 196.59375 243.167969 206.960938 Z M 243.167969 206.960938 " fill-opacity="1" fill-rule="nonzero"/><g fill="#000000" fill-opacity="1"><g transform="translate(68.794051, 365.081255)"><g><path d="M 48.53125 -40.140625 C 46.632812 -31.296875 44.550781 -23.148438 42.28125 -15.703125 C 40.019531 -8.253906 37.453125 -0.941406 34.578125 6.234375 C 32.609375 6.835938 30.414062 7.328125 28 7.703125 C 25.582031 8.085938 23.203125 8.316406 20.859375 8.390625 C 15.566406 -6.878906 11.351562 -20.785156 8.21875 -33.328125 C 5.082031 -45.878906 2.457031 -59.109375 0.34375 -73.015625 C 3.59375 -73.992188 6.75 -74.75 9.8125 -75.28125 C 12.875 -75.8125 15.988281 -76.113281 19.15625 -76.1875 C 19.914062 -66.738281 21.179688 -57.023438 22.953125 -47.046875 C 24.734375 -37.066406 27.171875 -26.070312 30.265625 -14.0625 C 32.910156 -22.519531 35.117188 -30.566406 36.890625 -38.203125 C 38.671875 -45.835938 40.242188 -54.078125 41.609375 -62.921875 C 44.484375 -63.597656 47.5625 -64.125 50.84375 -64.5 C 54.132812 -64.882812 57.066406 -65.078125 59.640625 -65.078125 C 60.691406 -55.328125 61.785156 -46.820312 62.921875 -39.5625 C 64.054688 -32.3125 65.414062 -25.09375 67 -17.90625 C 70.9375 -28.71875 74.09375 -39.1875 76.46875 -49.3125 C 78.851562 -59.445312 80.613281 -69.84375 81.75 -80.5 C 84.769531 -80.269531 87.582031 -79.703125 90.1875 -78.796875 C 92.789062 -77.890625 95.15625 -76.601562 97.28125 -74.9375 C 94.851562 -61.332031 91.351562 -47.992188 86.78125 -34.921875 C 82.207031 -21.847656 76.632812 -9.300781 70.0625 2.71875 C 68.40625 3.019531 66.554688 3.300781 64.515625 3.5625 C 62.472656 3.832031 60.203125 4.039062 57.703125 4.1875 C 53.773438 -11.832031 51.375 -22.203125 50.5 -26.921875 C 49.632812 -31.648438 48.976562 -36.054688 48.53125 -40.140625 Z M 48.53125 -40.140625 "/></g></g></g><path stroke-linecap="butt" transform="matrix(1.371517, 0, 0, 1.371517, 141.329981, 253.988362)" fill="none" stroke-linejoin="miter" d="M 66.789985 77.770794 C 66.12922 79.653403 65.209276 81.336644 64.024457 82.817668 C 62.839638 84.310085 61.446905 85.608829 59.84626 86.711053 C 57.977891 85.984781 56.086737 85.190155 54.175647 84.330022 C 52.278797 83.481281 50.367706 82.567033 48.445223 81.584431 C 46.010077 83.239191 43.264487 84.478124 40.211299 85.298384 C 37.158111 86.118643 33.868528 86.528773 30.342552 86.528773 C 22.675404 86.528773 16.497825 84.617682 11.81551 80.798349 C 7.136044 76.964775 4.794886 71.986256 4.794886 65.865639 C 4.794886 61.465289 6.167682 57.637411 8.910424 54.382006 C 11.670256 51.126601 15.50383 48.865191 20.413994 47.600625 C 20.197537 46.281944 20.029497 44.991744 19.909876 43.727177 C 19.801648 42.44837 19.747533 41.20374 19.747533 39.993288 C 19.747533 34.262864 21.274127 29.720107 24.330164 26.370714 C 27.397592 23.007081 31.627055 21.326688 37.021401 21.326688 C 40.93757 21.326688 44.104683 22.374797 46.528436 24.473864 C 48.963581 26.55869 50.17973 29.255863 50.17973 32.565382 C 50.17973 36.58978 48.658832 39.964806 45.619885 42.696157 C 42.59233 45.416114 38.26603 47.324357 32.643835 48.429429 C 33.854288 52.234521 35.736897 55.766194 38.294512 59.024447 C 40.863519 62.265611 44.104683 65.293166 48.020852 68.104264 C 48.786998 66.557733 49.365167 64.928606 49.75536 63.219732 C 50.145552 61.510858 50.342073 59.750718 50.342073 57.933616 C 50.342073 56.56082 50.253781 55.227899 50.080046 53.937699 C 49.917703 52.633258 49.641435 51.09812 49.251242 49.335132 C 51.296194 48.785444 53.361084 48.60886 55.448758 48.811077 C 57.544977 48.999053 59.538663 49.531652 61.421272 50.406026 C 61.475387 51.844328 61.45545 53.256997 61.361462 54.644033 C 61.278866 56.016829 61.159245 57.443739 60.996902 58.921914 C 60.675064 61.627632 60.136769 64.162461 59.382016 66.529252 C 58.641504 68.89889 57.667446 71.103337 56.456993 73.151138 C 58.057639 73.971398 59.726639 74.783113 61.461146 75.59198 C 63.195653 76.386606 64.972882 77.112877 66.789985 77.770794 Z M 35.449237 27.763446 C 34.022327 27.763446 32.905863 28.603643 32.099844 30.286884 C 31.305217 31.967276 30.90648 34.322674 30.90648 37.350229 C 30.90648 38.560682 30.949202 39.71702 31.028949 40.819243 C 31.108697 41.924315 31.265344 42.972424 31.493193 43.969268 C 33.968213 43.026539 35.865063 41.648047 37.183744 39.830945 C 38.516665 38.013842 39.183126 35.894838 39.183126 33.473934 C 39.183126 31.659679 38.866984 30.252706 38.234701 29.255863 C 37.602418 28.261868 36.67393 27.763446 35.449237 27.763446 Z M 17.024727 62.818147 C 17.024727 67.338119 18.497207 71.003653 21.442167 73.814751 C 24.389974 76.628697 28.237789 78.032821 32.98561 78.032821 C 34.250177 78.032821 35.47487 77.898959 36.659689 77.631236 C 37.844508 77.346424 38.986606 76.930598 40.088829 76.378062 C 35.568858 73.122657 31.760917 69.511237 28.667855 65.540953 C 25.586186 61.573517 23.307687 57.355447 21.826663 52.88959 C 20.226018 54.045928 19.021262 55.450052 18.215243 57.104812 C 17.420617 58.759571 17.024727 60.664966 17.024727 62.818147 Z M 116.384354 44.473385 C 116.384354 52.450979 113.442243 59.998505 107.563717 67.115965 C 101.699431 74.219184 94.305703 79.123652 85.385381 81.826521 C 84.001193 81.826521 82.243901 81.741078 80.119201 81.564494 C 78.005894 81.404999 76.231513 81.214175 74.790363 81.000566 C 74.078332 72.900503 73.554277 65.446965 73.21535 58.63995 C 72.893513 51.832936 72.73117 45.287949 72.73117 39.004989 C 72.73117 36.851808 72.759651 34.664449 72.813765 32.445761 C 72.867879 30.212832 72.921994 28.073892 72.97326 26.028939 C 76.06917 24.547915 79.062547 23.465629 81.956241 22.779231 C 84.847086 22.078593 87.914514 21.728273 91.158527 21.728273 C 99.37821 21.728273 105.632689 23.673542 109.924811 27.56123 C 114.231173 31.448918 116.384354 37.088202 116.384354 44.473385 Z M 86.131589 30.002071 C 85.687282 35.453379 85.365444 40.77937 85.163227 45.985739 C 84.975251 51.192108 84.881263 57.187407 84.881263 63.968789 C 84.881263 65.125127 84.895504 66.341275 84.921137 67.620083 C 84.949618 68.88465 84.989492 70.587827 85.043606 72.726768 C 91.055994 70.14352 95.644321 66.429567 98.805738 61.58491 C 101.981395 56.72886 103.5678 51.024069 103.5678 44.473385 C 103.5678 39.77683 102.371588 36.111296 99.976316 33.473934 C 97.581045 30.825179 94.206019 29.497954 89.845542 29.497954 C 89.238892 29.497954 88.620849 29.540675 87.988566 29.620423 C 87.356282 29.70017 86.73824 29.828336 86.131589 30.002071 Z M 86.131589 30.002071 " stroke="#a9a9a9" stroke-width="8.473337" stroke-opacity="1" stroke-miterlimit="4"/><g fill="#000000" fill-opacity="1"><g transform="translate(143.365827, 365.081255)"><g><path d="M 89.5625 -4.421875 C 88.65625 -1.847656 87.390625 0.457031 85.765625 2.5 C 84.140625 4.539062 82.234375 6.316406 80.046875 7.828125 C 77.472656 6.835938 74.878906 5.753906 72.265625 4.578125 C 69.660156 3.410156 67.035156 2.148438 64.390625 0.796875 C 61.066406 3.054688 57.304688 4.753906 53.109375 5.890625 C 48.921875 7.023438 44.40625 7.59375 39.5625 7.59375 C 29.0625 7.59375 20.597656 4.96875 14.171875 -0.28125 C 7.742188 -5.53125 4.53125 -12.351562 4.53125 -20.75 C 4.53125 -26.789062 6.421875 -32.039062 10.203125 -36.5 C 13.984375 -40.96875 19.238281 -44.066406 25.96875 -45.796875 C 25.664062 -47.617188 25.4375 -49.394531 25.28125 -51.125 C 25.132812 -52.863281 25.0625 -54.566406 25.0625 -56.234375 C 25.0625 -64.097656 27.15625 -70.332031 31.34375 -74.9375 C 35.539062 -79.550781 41.34375 -81.859375 48.75 -81.859375 C 54.113281 -81.859375 58.457031 -80.421875 61.78125 -77.546875 C 65.113281 -74.671875 66.78125 -70.96875 66.78125 -66.4375 C 66.78125 -60.914062 64.703125 -56.285156 60.546875 -52.546875 C 56.390625 -48.804688 50.457031 -46.179688 42.75 -44.671875 C 44.40625 -39.453125 46.988281 -34.613281 50.5 -30.15625 C 54.019531 -25.695312 58.460938 -21.539062 63.828125 -17.6875 C 64.890625 -19.800781 65.679688 -22.03125 66.203125 -24.375 C 66.734375 -26.71875 67 -29.132812 67 -31.625 C 67 -33.519531 66.882812 -35.351562 66.65625 -37.125 C 66.4375 -38.90625 66.0625 -41.003906 65.53125 -43.421875 C 68.320312 -44.179688 71.15625 -44.425781 74.03125 -44.15625 C 76.90625 -43.894531 79.628906 -43.160156 82.203125 -41.953125 C 82.273438 -39.984375 82.253906 -38.050781 82.140625 -36.15625 C 82.023438 -34.269531 81.851562 -32.304688 81.625 -30.265625 C 81.175781 -26.566406 80.441406 -23.09375 79.421875 -19.84375 C 78.398438 -16.59375 77.054688 -13.566406 75.390625 -10.765625 C 77.585938 -9.628906 79.875 -8.515625 82.25 -7.421875 C 84.632812 -6.328125 87.070312 -5.328125 89.5625 -4.421875 Z M 46.59375 -73.015625 C 44.632812 -73.015625 43.101562 -71.859375 42 -69.546875 C 40.90625 -67.242188 40.359375 -64.015625 40.359375 -59.859375 C 40.359375 -58.203125 40.414062 -56.613281 40.53125 -55.09375 C 40.644531 -53.582031 40.851562 -52.148438 41.15625 -50.796875 C 44.550781 -52.078125 47.15625 -53.960938 48.96875 -56.453125 C 50.789062 -58.953125 51.703125 -61.863281 51.703125 -65.1875 C 51.703125 -67.6875 51.265625 -69.613281 50.390625 -70.96875 C 49.523438 -72.332031 48.257812 -73.015625 46.59375 -73.015625 Z M 21.3125 -24.9375 C 21.3125 -18.738281 23.332031 -13.710938 27.375 -9.859375 C 31.425781 -6.003906 36.703125 -4.078125 43.203125 -4.078125 C 44.929688 -4.078125 46.609375 -4.265625 48.234375 -4.640625 C 49.859375 -5.023438 51.429688 -5.59375 52.953125 -6.34375 C 46.753906 -10.800781 41.535156 -15.75 37.296875 -21.1875 C 33.066406 -26.632812 29.929688 -32.421875 27.890625 -38.546875 C 25.703125 -36.960938 24.054688 -35.035156 22.953125 -32.765625 C 21.859375 -30.492188 21.3125 -27.882812 21.3125 -24.9375 Z M 21.3125 -24.9375 "/></g></g></g><g fill="#000000" fill-opacity="1"><g transform="translate(235.077564, 365.081255)"><g><path d="M 65.875 -50.109375 C 65.875 -39.148438 61.847656 -28.796875 53.796875 -19.046875 C 45.742188 -9.296875 35.597656 -2.566406 23.359375 1.140625 C 21.460938 1.140625 19.0625 1.023438 16.15625 0.796875 C 13.25 0.566406 10.8125 0.300781 8.84375 0 C 7.863281 -11.113281 7.144531 -21.335938 6.6875 -30.671875 C 6.238281 -40.003906 6.015625 -48.976562 6.015625 -57.59375 C 6.015625 -60.539062 6.050781 -63.546875 6.125 -66.609375 C 6.195312 -69.671875 6.269531 -72.597656 6.34375 -75.390625 C 10.582031 -77.429688 14.6875 -78.925781 18.65625 -79.875 C 22.625 -80.820312 26.835938 -81.296875 31.296875 -81.296875 C 42.554688 -81.296875 51.132812 -78.628906 57.03125 -73.296875 C 62.925781 -67.960938 65.875 -60.234375 65.875 -50.109375 Z M 24.375 -69.953125 C 23.769531 -62.472656 23.332031 -55.160156 23.0625 -48.015625 C 22.800781 -40.867188 22.671875 -32.648438 22.671875 -23.359375 C 22.671875 -21.765625 22.6875 -20.097656 22.71875 -18.359375 C 22.757812 -16.628906 22.820312 -14.289062 22.90625 -11.34375 C 31.144531 -14.894531 37.4375 -19.992188 41.78125 -26.640625 C 46.125 -33.296875 48.296875 -41.117188 48.296875 -50.109375 C 48.296875 -56.535156 46.648438 -61.5625 43.359375 -65.1875 C 40.078125 -68.8125 35.453125 -70.625 29.484375 -70.625 C 28.648438 -70.625 27.796875 -70.566406 26.921875 -70.453125 C 26.054688 -70.347656 25.207031 -70.179688 24.375 -69.953125 Z M 24.375 -69.953125 "/></g></g></g></svg>